<?xml version="1.0" encoding="UTF-8"?> <svg xmlns="http://www.w3.org/2000/svg" width="519" height="177" viewBox="0 0 519 177" fill="none"> <path d="M33.2956 74.288C35.8556 76.08 37.9356 77.456 39.5356 78.416C41.1996 79.376 43.3436 80.336 45.9676 81.296C48.6556 82.192 51.3116 82.64 53.9356 82.64C61.5516 82.64 68.7516 80.272 75.5356 75.536C82.3196 70.8 87.5996 64.912 91.3756 57.872C95.1516 50.768 97.0396 43.664 97.0396 36.56C97.0396 27.024 94.7036 19.536 90.0316 14.096C85.3596 8.592 78.8636 5.2 70.5436 3.92C69.0076 12.048 64.2716 24.272 56.3356 40.592C53.7756 45.84 50.4156 51.6 46.2556 57.872C42.1596 64.08 37.8396 69.552 33.2956 74.288ZM27.5356 73.616C24.2076 70.16 20.7516 68.432 17.1676 68.432C14.6716 68.432 12.1436 69.648 9.58363 72.08C7.02363 74.448 5.74363 77.2 5.74363 80.336C5.74363 83.536 7.59963 85.232 11.3116 85.424H11.5996C15.8876 85.424 21.1996 81.488 27.5356 73.616ZM60.8476 0.943996C73.6476 0.943996 83.8556 4.464 91.4716 11.504C99.1516 18.544 102.992 28.4 102.992 41.072C102.992 49.456 100.88 57.232 96.6556 64.4C92.4956 71.568 86.6716 77.296 79.1836 81.584C71.7596 85.808 63.5676 87.92 54.6076 87.92C51.4716 87.92 48.6236 87.6 46.0636 86.96C43.5036 86.384 41.2636 85.52 39.3436 84.368C37.4236 83.152 35.8556 82.032 34.6396 81.008C33.4236 79.92 32.0796 78.576 30.6076 76.976C23.3756 83.76 16.5916 87.152 10.2556 87.152C7.63163 87.152 5.29563 86.288 3.24763 84.56C1.26363 82.768 0.271625 80.688 0.271625 78.32C0.271625 74.48 1.83963 71.504 4.97563 69.392C8.17563 67.28 11.5996 66.192 15.2476 66.128C19.2796 66.128 23.9516 67.92 29.2636 71.504C34.7676 64.208 40.8476 54 47.5036 40.88C55.4396 25.072 60.4636 12.56 62.5756 3.34399H62.3836C54.0636 3.34399 46.9916 5.488 41.1676 9.776C35.4076 14.064 32.5276 18.192 32.5276 22.16C32.5276 22.544 32.5596 22.896 32.6236 23.216C32.6876 23.472 32.7196 23.696 32.7196 23.888C32.7836 24.016 32.8476 24.144 32.9116 24.272C32.9756 24.4 33.0076 24.496 33.0076 24.56C33.0076 24.816 32.8476 24.944 32.5276 24.944C32.3996 24.944 32.2076 24.88 31.9516 24.752C31.6956 24.56 31.3436 24.336 30.8956 24.08C30.5116 23.824 30.1596 23.6 29.8396 23.408C27.9196 22.32 26.9596 21.296 26.9596 20.336C26.9596 15.728 30.4156 11.344 37.3276 7.184C44.2396 3.024 52.0796 0.943996 60.8476 0.943996ZM163.15 76.592C158.35 80.432 153.614 83.472 148.942 85.712C144.27 87.952 140.462 89.072 137.518 89.072C135.854 89.072 134.414 88.592 133.198 87.632C131.982 86.672 131.374 85.36 131.374 83.696C131.374 81.52 131.95 79.248 133.102 76.88C134.254 74.512 135.662 72.336 137.326 70.352C138.99 68.368 140.654 66.448 142.318 64.592C144.046 62.672 145.486 60.816 146.638 59.024C147.79 57.168 148.366 55.568 148.366 54.224C148.366 52.112 147.822 50.672 146.734 49.904C145.71 49.072 144.558 48.656 143.278 48.656C140.526 48.656 136.75 50.704 131.95 54.8C127.214 58.832 122.606 63.6 118.126 69.104C114.606 75.312 111.758 80.432 109.582 84.464C105.998 91.184 99.7579 103.216 90.8619 120.56C81.9019 137.968 73.8379 153.072 66.6699 165.872C65.6459 167.728 64.3339 169.36 62.7339 170.768C61.1339 172.24 59.5979 173.36 58.1259 174.128C56.6539 174.896 55.1819 175.504 53.7099 175.952C52.1739 176.4 51.0219 176.688 50.2539 176.816C49.4219 176.944 48.8459 177.008 48.5259 177.008C47.9499 177.008 47.6619 176.88 47.6619 176.624C47.6619 176.432 47.7259 176.272 47.8539 176.144C47.9819 176.08 48.1739 175.984 48.4299 175.856C48.6859 175.792 49.0059 175.696 49.3899 175.568C49.7739 175.44 50.2539 175.216 50.8299 174.896C51.4059 174.576 52.0139 174.16 52.6539 173.648C53.9339 172.688 56.2059 169.776 59.4699 164.912C62.7339 160.048 68.4619 150.608 76.6539 136.592C84.7819 122.64 94.6379 105.008 106.222 83.696C110.958 74.992 114.254 68.56 116.11 64.4C117.966 60.176 118.894 57.072 118.894 55.088C118.894 51.888 118.254 49.808 116.974 48.848C116.462 48.464 116.206 48.24 116.206 48.176C116.206 48.048 116.27 47.92 116.398 47.792C116.59 47.664 116.846 47.504 117.166 47.312C117.486 47.12 117.742 46.96 117.934 46.832C118.382 46.448 118.798 46.096 119.182 45.776C119.63 45.392 119.918 45.104 120.046 44.912C120.238 44.72 120.462 44.592 120.718 44.528C121.038 44.4 121.39 44.336 121.774 44.336C122.734 44.336 123.502 44.912 124.078 46.064C124.718 47.216 125.038 48.88 125.038 51.056C125.038 54.384 124.014 57.968 121.966 61.808C134.702 49.136 144.494 42.8 151.342 42.8C152.686 42.8 153.934 43.312 155.086 44.336C156.238 45.36 156.814 47.088 156.814 49.52C156.814 51.76 155.822 54.48 153.838 57.68C151.918 60.88 149.774 63.824 147.406 66.512C145.102 69.136 142.958 71.856 140.974 74.672C139.054 77.424 138.094 79.536 138.094 81.008C138.094 83.824 139.502 85.232 142.318 85.232C144.878 85.232 148.142 84.176 152.11 82.064C156.142 79.952 159.566 77.808 162.382 75.632C166.35 72.56 170.702 68.08 175.438 62.192C175.758 61.808 176.014 61.616 176.206 61.616C176.462 61.616 176.59 61.744 176.59 62C176.59 62.192 176.526 62.384 176.398 62.576C172.046 68.464 167.63 73.136 163.15 76.592ZM176.546 61.808C189.218 58.736 195.554 54.128 195.554 47.984C195.554 47.28 195.33 46.672 194.882 46.16C194.498 45.584 193.89 45.296 193.058 45.296C190.37 45.296 187.554 46.864 184.61 50C181.666 53.136 178.978 57.072 176.546 61.808ZM177.794 87.536C174.146 87.536 171.074 86.544 168.578 84.56C166.082 82.576 164.834 79.76 164.834 76.112C164.834 72.72 165.634 69.328 167.234 65.936C168.898 62.48 170.978 59.408 173.474 56.72C176.034 54.032 178.786 51.6 181.73 49.424C184.674 47.248 187.522 45.584 190.274 44.432C193.09 43.28 195.49 42.704 197.474 42.704C198.818 42.704 199.97 43.152 200.93 44.048C201.954 44.88 202.466 46.032 202.466 47.504C202.466 48.08 202.21 48.88 201.698 49.904C201.186 50.864 200.258 52.016 198.914 53.36C197.634 54.704 196.034 56.016 194.114 57.296C192.194 58.576 189.602 59.824 186.338 61.04C183.138 62.256 179.586 63.184 175.682 63.824C173.634 67.92 172.61 71.984 172.61 76.016C172.61 78.96 173.474 81.2 175.202 82.736C176.93 84.272 179.17 85.04 181.922 85.04C185.058 85.04 188.834 84.112 193.25 82.256C197.666 80.4 201.57 78.192 204.962 75.632C208.93 72.56 213.282 68.08 218.018 62.192C218.274 61.808 218.53 61.616 218.786 61.616C219.042 61.616 219.17 61.744 219.17 62C219.17 62.128 219.106 62.32 218.978 62.576C214.626 68.464 210.21 73.136 205.73 76.592C196.77 83.888 187.458 87.536 177.794 87.536ZM251.17 76.592C246.05 80.304 241.346 83.152 237.058 85.136C232.77 87.12 228.13 88.112 223.138 88.112C218.914 88.112 215.362 87.152 212.482 85.232C209.666 83.248 208.258 80.016 208.258 75.536C208.258 71.632 209.474 67.632 211.906 63.536C214.338 59.376 217.282 55.824 220.738 52.88C224.194 49.872 227.778 47.44 231.49 45.584C235.202 43.664 238.37 42.704 240.994 42.704C242.53 42.704 243.746 43.216 244.642 44.24C245.538 45.264 245.986 46.608 245.986 48.272C245.986 49.488 245.794 50.384 245.41 50.96C245.026 51.472 244.002 52.176 242.338 53.072C241.058 53.712 240.162 54.032 239.65 54.032C239.394 54.032 239.266 53.968 239.266 53.84C239.266 53.776 239.298 53.68 239.362 53.552C239.426 53.36 239.49 53.104 239.554 52.784C239.618 52.464 239.65 52.112 239.65 51.728C239.65 50.064 239.17 48.784 238.21 47.888C237.25 46.992 236.258 46.544 235.234 46.544C232.674 46.544 229.858 48.144 226.786 51.344C223.778 54.544 221.25 58.416 219.202 62.96C217.154 67.504 216.13 71.6 216.13 75.248C216.13 82.16 219.618 85.616 226.594 85.616C233.442 85.616 241.378 82.288 250.402 75.632C254.37 72.56 258.722 68.08 263.458 62.192C263.714 61.808 263.97 61.616 264.226 61.616C264.482 61.616 264.61 61.744 264.61 62C264.61 62.128 264.546 62.32 264.418 62.576C260.066 68.464 255.65 73.136 251.17 76.592ZM296.545 76.592C291.425 80.304 286.721 83.152 282.433 85.136C278.145 87.12 273.505 88.112 268.513 88.112C264.289 88.112 260.737 87.152 257.857 85.232C255.041 83.248 253.633 80.016 253.633 75.536C253.633 71.632 254.849 67.632 257.281 63.536C259.713 59.376 262.657 55.824 266.113 52.88C269.569 49.872 273.153 47.44 276.865 45.584C280.577 43.664 283.745 42.704 286.369 42.704C287.905 42.704 289.121 43.216 290.017 44.24C290.913 45.264 291.361 46.608 291.361 48.272C291.361 49.488 291.169 50.384 290.785 50.96C290.401 51.472 289.377 52.176 287.713 53.072C286.433 53.712 285.537 54.032 285.025 54.032C284.769 54.032 284.641 53.968 284.641 53.84C284.641 53.776 284.673 53.68 284.737 53.552C284.801 53.36 284.865 53.104 284.929 52.784C284.993 52.464 285.025 52.112 285.025 51.728C285.025 50.064 284.545 48.784 283.585 47.888C282.625 46.992 281.633 46.544 280.609 46.544C278.049 46.544 275.233 48.144 272.161 51.344C269.153 54.544 266.625 58.416 264.577 62.96C262.529 67.504 261.505 71.6 261.505 75.248C261.505 82.16 264.993 85.616 271.969 85.616C278.817 85.616 286.753 82.288 295.777 75.632C299.745 72.56 304.097 68.08 308.833 62.192C309.089 61.808 309.345 61.616 309.601 61.616C309.857 61.616 309.985 61.744 309.985 62C309.985 62.128 309.921 62.32 309.793 62.576C305.441 68.464 301.025 73.136 296.545 76.592ZM338.752 52.4C339.456 52.4 340.992 52.368 343.36 52.304C345.792 52.24 347.2 52.208 347.584 52.208C347.904 52.208 348.064 52.272 348.064 52.4C348.064 52.464 348.032 52.56 347.968 52.688C347.968 52.752 347.872 52.976 347.68 53.36C347.488 53.68 347.296 54.064 347.104 54.512C346.272 56.432 345.632 57.392 345.184 57.392C344.928 57.392 342.112 57.264 336.736 57.008C331.36 56.752 326.848 56.624 323.2 56.624C321.024 56.624 318.176 56.688 314.656 56.816C311.2 56.944 309.376 57.008 309.184 57.008C308.928 57.008 308.8 56.944 308.8 56.816C308.8 56.752 308.832 56.688 308.896 56.624C308.96 56.496 309.12 56.24 309.376 55.856C309.632 55.472 309.92 55.024 310.24 54.512C311.2 52.848 311.904 52.016 312.352 52.016C313.376 52.016 316.992 52.08 323.2 52.208C329.408 52.336 334.592 52.4 338.752 52.4ZM377.36 47.504C377.36 48.592 376.848 50.256 375.824 52.496C374.864 54.736 373.808 56.88 372.656 58.928C371.504 60.912 370.256 62.992 368.912 65.168C367.632 67.344 366.896 68.624 366.704 69.008H366.896L368.528 67.376C374.48 61.232 380.848 55.6 387.632 50.48C394.48 45.36 399.632 42.8 403.088 42.8C405.904 42.8 407.312 43.472 407.312 44.816C407.312 45.008 407.248 45.2 407.12 45.392C407.056 45.584 406.896 45.808 406.64 46.064C406.448 46.256 406.256 46.416 406.064 46.544C405.936 46.672 405.648 46.896 405.2 47.216C404.752 47.536 404.432 47.792 404.24 47.984C403.92 48.24 403.6 48.56 403.28 48.944C402.96 49.264 402.704 49.52 402.512 49.712C402.32 49.84 402.128 49.904 401.936 49.904C401.68 49.904 401.552 49.712 401.552 49.328C401.552 48.624 400.496 48.272 398.384 48.272C396.08 48.272 393.648 49.04 391.088 50.576C388.528 52.112 384.848 54.896 380.048 58.928C380.944 60.016 381.616 60.912 382.064 61.616C382.512 62.256 383.056 63.344 383.696 64.88C384.4 66.352 384.976 68.112 385.424 70.16C386.896 76.368 388.016 80.08 388.784 81.296C389.808 82.896 391.376 83.696 393.488 83.696C395.216 83.696 397.744 82.832 401.072 81.104C404.4 79.376 407.248 77.552 409.616 75.632C413.584 72.56 417.936 68.08 422.672 62.192C422.928 61.808 423.184 61.616 423.44 61.616C423.696 61.616 423.824 61.744 423.824 62C423.824 62.128 423.76 62.32 423.632 62.576C419.28 68.464 414.864 73.136 410.384 76.592C407.248 79.216 403.536 81.712 399.248 84.08C395.024 86.384 391.28 87.536 388.016 87.536C386.672 87.536 385.52 87.28 384.56 86.768C383.6 86.256 382.8 85.712 382.16 85.136C381.584 84.496 381.04 83.44 380.528 81.968C380.016 80.432 379.632 79.184 379.376 78.224C379.184 77.2 378.864 75.536 378.416 73.232C377.52 69.136 376.048 66.128 374 64.208C370.928 67.024 367.536 70.8 363.824 75.536C361.776 78.992 360.016 82.224 358.544 85.232C358.416 85.488 358.064 85.68 357.488 85.808C356.912 85.872 356.048 85.936 354.896 86C353.744 86.128 353.104 86.192 352.976 86.192C352.4 86.256 351.76 86.448 351.056 86.768C350.416 87.088 350.032 87.248 349.904 87.248C349.648 87.248 349.52 87.12 349.52 86.864C349.52 86.672 349.936 86 350.768 84.848C351.664 83.696 353.328 81.104 355.76 77.072C358.256 72.976 361.04 68.016 364.112 62.192C368.208 54.448 370.256 49.84 370.256 48.368C370.256 45.808 369.488 44.528 367.952 44.528C366.48 44.528 364.112 45.616 360.848 47.792C360.272 48.176 359.952 48.368 359.888 48.368C359.632 48.368 359.504 48.24 359.504 47.984C359.504 47.728 359.696 47.472 360.08 47.216C364.88 43.632 368.72 41.84 371.6 41.84C373.456 41.84 374.864 42.384 375.824 43.472C376.848 44.496 377.36 45.84 377.36 47.504ZM446.322 42.704C449.97 42.704 452.85 43.856 454.962 46.16C457.138 48.464 458.226 51.536 458.226 55.376C458.226 59.6 457.17 63.728 455.058 67.76C453.01 71.792 450.386 75.248 447.186 78.128C443.986 80.944 440.402 83.216 436.434 84.944C432.53 86.672 428.786 87.536 425.202 87.536C421.618 87.536 418.674 86.384 416.37 84.08C414.066 81.712 412.914 78.736 412.914 75.152C412.914 69.904 414.674 64.72 418.194 59.6C421.778 54.48 426.162 50.384 431.346 47.312C436.53 44.24 441.522 42.704 446.322 42.704ZM443.538 44.816C440.146 44.816 436.69 46.352 433.17 49.424C429.65 52.496 426.738 56.336 424.434 60.944C422.194 65.488 421.074 69.872 421.074 74.096C421.074 77.232 421.746 79.856 423.09 81.968C424.434 84.016 426.13 85.04 428.178 85.04C433.362 85.04 438.354 81.776 443.154 75.248C448.018 68.656 450.45 62.064 450.45 55.472C450.45 52.336 449.81 49.776 448.53 47.792C447.314 45.808 445.65 44.816 443.538 44.816ZM427.561 168.176C422.185 168.176 417.353 166.192 413.065 162.224C408.777 158.32 406.633 153.328 406.633 147.248C406.633 143.28 407.465 139.472 409.129 135.824C410.729 132.176 412.777 128.912 415.273 126.032C417.705 123.216 420.841 120.432 424.681 117.68C428.521 114.992 432.201 112.688 435.721 110.768C439.177 108.912 443.241 107.024 447.913 105.104C452.521 103.248 456.425 101.776 459.625 100.688C462.761 99.6 466.313 98.416 470.281 97.136C473.353 96.24 474.985 95.792 475.177 95.792C475.753 95.792 476.041 96.016 476.041 96.464C476.041 96.656 475.977 96.816 475.849 96.944C475.721 97.136 475.497 97.296 475.177 97.424C474.921 97.616 474.665 97.744 474.409 97.808C474.217 97.872 473.865 97.968 473.353 98.096C472.905 98.288 472.585 98.416 472.393 98.48C460.105 102.448 451.977 105.232 448.009 106.832C429.129 114.576 418.025 124.368 414.697 136.208C413.993 138.832 413.641 141.584 413.641 144.464C413.641 150.16 415.529 154.896 419.305 158.672C423.017 162.448 427.657 164.336 433.225 164.336C439.305 164.336 444.969 161.776 450.217 156.656C455.401 151.6 460.649 144.496 465.961 135.344C485.289 101.68 498.089 79.6 504.361 69.104H504.265C499.849 73.776 494.857 77.776 489.289 81.104C483.721 84.368 478.601 86 473.929 86C471.241 86 469.193 85.104 467.785 83.312C466.441 81.456 465.769 79.024 465.769 76.016C465.769 71.472 467.433 66.48 470.761 61.04C474.153 55.6 478.377 50.992 483.433 47.216C488.489 43.376 493.193 41.456 497.545 41.456C504.073 41.456 509.257 45.68 513.097 54.128L513.673 52.976C514.057 52.144 514.377 51.6 514.633 51.344C514.889 51.024 515.305 50.832 515.881 50.768C516.457 50.704 516.777 50.672 516.841 50.672C516.905 50.672 517.097 50.608 517.417 50.48C517.801 50.352 518.057 50.288 518.185 50.288C518.249 50.288 518.345 50.352 518.473 50.48C518.665 50.608 518.761 50.736 518.761 50.864C518.761 51.248 518.569 51.632 518.185 52.016C517.929 52.272 517.641 52.72 517.321 53.36C517.001 53.936 516.585 54.672 516.073 55.568C515.625 56.464 515.241 57.2 514.921 57.776C515.305 58.544 515.497 59.184 515.497 59.696C515.497 60.208 515.305 60.464 514.921 60.464C514.857 60.464 514.601 60.016 514.153 59.12L473.545 134.672C471.561 138.32 468.969 142.032 465.769 145.808C462.569 149.648 458.985 153.264 455.017 156.656C450.985 160.048 446.537 162.8 441.673 164.912C436.809 167.088 432.105 168.176 427.561 168.176ZM512.329 55.28C508.489 48.368 503.625 44.912 497.737 44.912C494.601 44.912 491.145 46.448 487.369 49.52C483.657 52.528 480.457 56.528 477.769 61.52C475.081 66.512 473.737 71.408 473.737 76.208C473.737 77.744 474.249 79.184 475.273 80.528C476.361 81.872 477.641 82.544 479.113 82.544C485.577 82.544 494.473 76.88 505.801 65.552C507.401 63.952 509.577 60.528 512.329 55.28Z" fill="black"></path> </svg> 