<?xml version="1.0" encoding="UTF-8"?> <svg xmlns="http://www.w3.org/2000/svg" width="472" height="120" viewBox="0 0 472 120" fill="none"> <path d="M92.5854 7.32C84.5854 34.584 80.5854 55.448 80.5854 69.912C80.5854 75.224 81.0654 78.936 82.0254 81.048C82.9854 83.16 84.4254 84.216 86.3454 84.216C88.2654 84.216 90.7614 83.48 93.8334 82.008C96.9694 80.536 99.9454 78.744 102.761 76.632C106.729 73.56 111.081 69.08 115.817 63.192C116.073 62.808 116.329 62.616 116.585 62.616C116.841 62.616 116.969 62.744 116.969 63C116.969 63.128 116.905 63.32 116.777 63.576C112.425 69.464 108.009 74.136 103.529 77.592C101.993 78.872 100.265 80.152 98.3454 81.432C96.4894 82.648 93.8334 84.024 90.3774 85.56C86.9214 87.032 83.8174 87.768 81.0654 87.768C77.4174 87.768 74.8894 86.328 73.4814 83.448C72.1374 80.504 71.4654 76.312 71.4654 70.872C71.4654 64.984 72.4254 57.112 74.3454 47.256C76.2654 37.336 78.1854 28.632 80.1054 21.144L82.9854 10.008C82.9854 9.624 82.8894 9.432 82.6974 9.432C82.2494 9.432 81.1934 10.456 79.5294 12.504L41.3214 57.624C30.3774 70.552 21.7374 79.64 15.4014 84.888C13.5454 86.296 10.7934 87.192 7.14538 87.576C6.95338 87.576 6.24938 87.704 5.03337 87.96C3.75337 88.216 2.72937 88.344 1.96137 88.344C1.19337 88.344 0.809375 88.088 0.809375 87.576C0.809375 86.936 1.32137 86.488 2.34537 86.232C4.77737 85.4 6.82538 84.248 8.48938 82.776C18.1534 74.328 28.2334 64.824 38.7294 54.264C49.2254 43.64 62.0574 29.464 77.2254 11.736C78.2494 10.584 79.0814 9.624 79.7214 8.856C80.4254 8.024 81.1294 7.288 81.8334 6.648C82.5374 6.008 83.0494 5.56 83.3694 5.304C83.6894 4.984 84.1694 4.63199 84.8094 4.248C85.5134 3.864 85.9614 3.64 86.1534 3.576C86.3454 3.448 86.8894 3.224 87.7854 2.904C88.6814 2.52 89.3214 2.264 89.7054 2.13599C89.8974 2.07199 90.5374 1.78399 91.6254 1.27199C92.7774 0.695993 93.5454 0.407993 93.9294 0.407993C94.4414 0.407993 94.6974 0.727995 94.6974 1.368C94.6974 2.072 94.3454 3.224 93.6414 4.82399C92.9374 6.424 92.5854 7.256 92.5854 7.32ZM139.478 43.704C143.126 43.704 146.006 44.856 148.118 47.16C150.294 49.464 151.382 52.536 151.382 56.376C151.382 60.6 150.326 64.728 148.214 68.76C146.166 72.792 143.542 76.248 140.342 79.128C137.142 81.944 133.558 84.216 129.59 85.944C125.686 87.672 121.942 88.536 118.358 88.536C114.774 88.536 111.83 87.384 109.526 85.08C107.222 82.712 106.07 79.736 106.07 76.152C106.07 70.904 107.83 65.72 111.35 60.6C114.934 55.48 119.318 51.384 124.502 48.312C129.686 45.24 134.678 43.704 139.478 43.704ZM136.694 45.816C133.302 45.816 129.846 47.352 126.326 50.424C122.806 53.496 119.894 57.336 117.59 61.944C115.35 66.488 114.23 70.872 114.23 75.096C114.23 78.232 114.902 80.856 116.246 82.968C117.59 85.016 119.286 86.04 121.334 86.04C126.518 86.04 131.51 82.776 136.31 76.248C141.174 69.656 143.606 63.064 143.606 56.472C143.606 53.336 142.966 50.776 141.686 48.792C140.47 46.808 138.806 45.816 136.694 45.816ZM182.829 48.504C182.829 49.592 182.317 51.256 181.293 53.496C180.333 55.736 179.277 57.88 178.125 59.928C176.973 61.912 175.725 63.992 174.381 66.168C173.101 68.344 172.365 69.624 172.173 70.008H172.365L173.997 68.376C179.949 62.232 186.317 56.6 193.101 51.48C199.949 46.36 205.101 43.8 208.557 43.8C211.373 43.8 212.781 44.472 212.781 45.816C212.781 46.008 212.717 46.2 212.589 46.392C212.525 46.584 212.365 46.808 212.109 47.064C211.917 47.256 211.725 47.416 211.533 47.544C211.405 47.672 211.117 47.896 210.669 48.216C210.221 48.536 209.901 48.792 209.709 48.984C209.389 49.24 209.069 49.56 208.749 49.944C208.429 50.264 208.173 50.52 207.981 50.712C207.789 50.84 207.597 50.904 207.405 50.904C207.149 50.904 207.021 50.712 207.021 50.328C207.021 49.624 205.965 49.272 203.853 49.272C201.549 49.272 199.117 50.04 196.557 51.576C193.997 53.112 190.317 55.896 185.517 59.928C186.413 61.016 187.085 61.912 187.533 62.616C187.981 63.256 188.525 64.344 189.165 65.88C189.869 67.352 190.445 69.112 190.893 71.16C192.365 77.368 193.485 81.08 194.253 82.296C195.277 83.896 196.845 84.696 198.957 84.696C200.685 84.696 203.213 83.832 206.541 82.104C209.869 80.376 212.717 78.552 215.085 76.632C219.053 73.56 223.405 69.08 228.141 63.192C228.397 62.808 228.653 62.616 228.909 62.616C229.165 62.616 229.293 62.744 229.293 63C229.293 63.128 229.229 63.32 229.101 63.576C224.749 69.464 220.333 74.136 215.853 77.592C212.717 80.216 209.005 82.712 204.717 85.08C200.493 87.384 196.749 88.536 193.485 88.536C192.141 88.536 190.989 88.28 190.029 87.768C189.069 87.256 188.269 86.712 187.629 86.136C187.053 85.496 186.509 84.44 185.997 82.968C185.485 81.432 185.101 80.184 184.845 79.224C184.653 78.2 184.333 76.536 183.885 74.232C182.989 70.136 181.517 67.128 179.469 65.208C176.397 68.024 173.005 71.8 169.293 76.536C167.245 79.992 165.485 83.224 164.013 86.232C163.885 86.488 163.533 86.68 162.957 86.808C162.381 86.872 161.517 86.936 160.365 87C159.213 87.128 158.573 87.192 158.445 87.192C157.869 87.256 157.229 87.448 156.525 87.768C155.885 88.088 155.501 88.248 155.373 88.248C155.117 88.248 154.989 88.12 154.989 87.864C154.989 87.672 155.405 87 156.237 85.848C157.133 84.696 158.797 82.104 161.229 78.072C163.725 73.976 166.509 69.016 169.581 63.192C173.677 55.448 175.725 50.84 175.725 49.368C175.725 46.808 174.957 45.528 173.421 45.528C171.949 45.528 169.581 46.616 166.317 48.792C165.741 49.176 165.421 49.368 165.357 49.368C165.101 49.368 164.973 49.24 164.973 48.984C164.973 48.728 165.165 48.472 165.549 48.216C170.349 44.632 174.189 42.84 177.069 42.84C178.925 42.84 180.333 43.384 181.293 44.472C182.317 45.496 182.829 46.84 182.829 48.504ZM274.639 77.592C265.615 84.632 258.191 88.152 252.367 88.152C247.375 88.152 244.879 85.528 244.879 80.28C237.135 85.08 231.151 87.48 226.927 87.48C224.111 87.48 221.999 86.52 220.591 84.6C219.183 82.616 218.479 80.056 218.479 76.92C218.479 72.248 220.143 67.32 223.471 62.136C226.799 56.888 231.023 52.504 236.143 48.984C241.327 45.464 246.319 43.704 251.119 43.704C253.871 43.704 256.399 44.504 258.703 46.104C261.071 47.64 262.671 49.88 263.503 52.824C265.167 52.824 265.999 53.528 265.999 54.936C265.999 55.768 265.903 56.568 265.711 57.336C265.583 58.104 265.295 58.904 264.847 59.736C264.463 60.504 264.111 61.176 263.791 61.752C263.535 62.264 263.055 62.936 262.351 63.768C261.647 64.6 261.135 65.176 260.815 65.496C260.559 65.816 259.983 66.424 259.087 67.32C258.255 68.216 257.743 68.76 257.551 68.952C257.167 69.336 256.463 70.008 255.439 70.968C254.415 71.928 253.647 72.664 253.135 73.176C252.367 75.16 251.983 77.272 251.983 79.512C251.983 82.84 253.775 84.504 257.359 84.504C261.391 84.504 266.895 81.88 273.871 76.632C277.839 73.56 282.191 69.08 286.927 63.192C287.183 62.808 287.439 62.616 287.695 62.616C287.951 62.616 288.079 62.744 288.079 63C288.079 63.128 288.015 63.32 287.887 63.576C283.535 69.464 279.119 74.136 274.639 77.592ZM250.831 46.008C246.799 46.008 242.831 47.704 238.927 51.096C235.087 54.424 232.047 58.488 229.807 63.288C227.567 68.024 226.447 72.504 226.447 76.728C226.447 81.72 228.207 84.216 231.727 84.216C235.695 84.216 240.143 82.264 245.071 78.36C246.799 72.216 249.231 67.032 252.367 62.808C256.207 57.368 259.407 54.168 261.967 53.208C261.135 51.032 259.695 49.304 257.647 48.024C255.599 46.68 253.327 46.008 250.831 46.008ZM253.807 71.064C260.271 64.6 263.503 60.184 263.503 57.816C263.503 57.304 263.247 57.048 262.735 57.048C261.263 57.048 258.287 61.72 253.807 71.064ZM321.036 86.616C316.492 90.648 312.492 95.16 309.036 100.152C305.58 105.208 303.852 109.624 303.852 113.4C303.852 114.744 304.14 115.864 304.716 116.76C305.356 117.656 306.156 118.104 307.116 118.104C307.564 118.104 308.012 117.912 308.46 117.528C308.908 117.144 309.164 116.952 309.228 116.952C309.42 116.952 309.516 117.048 309.516 117.24C309.516 117.624 308.812 118.168 307.404 118.872C305.996 119.576 304.78 119.928 303.756 119.928C302.22 119.928 300.876 119.416 299.724 118.392C298.636 117.432 298.092 115.896 298.092 113.784C298.092 111.608 298.764 109.272 300.108 106.776C301.516 104.28 303.5 101.72 306.06 99.096C308.62 96.472 310.764 94.36 312.492 92.76C314.22 91.224 316.396 89.4 319.02 87.288C316.972 87.8 315.276 88.056 313.932 88.056C312.076 88.056 310.604 87.544 309.516 86.52C308.428 85.496 307.884 84.216 307.884 82.68C307.884 80.696 308.332 78.552 309.228 76.248C309.164 76.312 308.748 76.696 307.98 77.4C307.276 78.104 306.764 78.616 306.444 78.936C306.188 79.192 305.612 79.704 304.716 80.472C303.884 81.176 303.212 81.72 302.7 82.104C302.188 82.488 301.452 83.032 300.492 83.736C299.596 84.376 298.796 84.888 298.092 85.272C297.388 85.656 296.524 86.104 295.5 86.616C294.54 87.064 293.612 87.416 292.716 87.672C291.884 87.928 290.956 88.152 289.932 88.344C288.908 88.536 287.916 88.632 286.956 88.632C284.524 88.632 282.348 87.96 280.428 86.616C278.508 85.208 277.548 83.032 277.548 80.088C277.548 77.464 278.796 74.008 281.292 69.72C283.852 65.368 286.38 61.208 288.876 57.24C291.436 53.208 292.716 50.328 292.716 48.6C292.716 46.552 292.076 45.528 290.796 45.528C290.348 45.528 289.9 45.592 289.452 45.72C289.004 45.784 288.62 45.88 288.3 46.008C287.98 46.136 287.564 46.36 287.052 46.68C286.54 46.936 286.188 47.128 285.996 47.256C285.804 47.384 285.42 47.64 284.844 48.024C284.268 48.408 283.884 48.664 283.692 48.792C283.116 49.176 282.796 49.368 282.732 49.368C282.476 49.368 282.348 49.24 282.348 48.984C282.348 48.728 282.54 48.472 282.924 48.216C288.108 44.632 291.948 42.84 294.444 42.84C298.156 42.84 300.012 44.632 300.012 48.216C300.012 49.816 298.764 52.664 296.268 56.76C293.836 60.856 291.372 65.016 288.876 69.24C286.444 73.464 285.228 76.632 285.228 78.744C285.228 82.584 287.276 84.504 291.372 84.504C296.3 84.504 302.764 80.632 310.764 72.888C314.732 64.504 318.796 56.856 322.956 49.944C325.196 46.168 326.796 44.28 327.756 44.28C328.524 44.28 329.452 44.568 330.54 45.144C331.692 45.72 332.268 46.456 332.268 47.352C332.268 48.184 331.596 49.528 330.252 51.384C328.908 53.176 327.212 55.384 325.164 58.008C323.18 60.568 321.676 62.776 320.652 64.632C320.524 64.888 320.172 65.528 319.596 66.552C319.02 67.512 318.604 68.216 318.348 68.664C318.156 69.048 317.804 69.72 317.292 70.68C316.844 71.576 316.492 72.344 316.236 72.984C316.044 73.624 315.82 74.36 315.564 75.192C315.308 76.024 315.116 76.856 314.988 77.688C314.86 78.456 314.796 79.224 314.796 79.992C314.796 81.336 315.18 82.456 315.948 83.352C316.78 84.184 317.932 84.6 319.404 84.6C321.452 84.6 324.108 83.832 327.372 82.296C330.636 80.76 333.612 78.872 336.3 76.632C340.268 73.56 344.62 69.08 349.356 63.192C349.612 62.808 349.868 62.616 350.124 62.616C350.38 62.616 350.508 62.744 350.508 63C350.508 63.128 350.444 63.32 350.316 63.576C345.964 69.464 341.548 74.136 337.068 77.592C332.204 81.688 326.86 84.696 321.036 86.616ZM399.506 77.592C395.922 80.6 391.89 83.096 387.41 85.08C382.994 87.064 379.314 88.056 376.37 88.056C374.514 88.056 373.042 87.544 371.954 86.52C370.866 85.496 370.322 84.216 370.322 82.68C370.322 80.696 370.77 78.552 371.666 76.248C371.602 76.312 371.186 76.696 370.418 77.4C369.714 78.104 369.202 78.616 368.882 78.936C368.626 79.192 368.05 79.704 367.154 80.472C366.322 81.176 365.65 81.72 365.138 82.104C364.626 82.488 363.89 83.032 362.93 83.736C362.034 84.376 361.234 84.888 360.53 85.272C359.826 85.656 358.962 86.104 357.938 86.616C356.978 87.064 356.05 87.416 355.154 87.672C354.322 87.928 353.394 88.152 352.37 88.344C351.346 88.536 350.354 88.632 349.394 88.632C346.962 88.632 344.786 87.96 342.866 86.616C340.946 85.208 339.986 83.032 339.986 80.088C339.986 77.464 341.234 74.008 343.73 69.72C346.29 65.368 348.818 61.208 351.314 57.24C353.874 53.208 355.154 50.328 355.154 48.6C355.154 46.552 354.514 45.528 353.234 45.528C352.786 45.528 352.338 45.592 351.89 45.72C351.442 45.784 351.058 45.88 350.738 46.008C350.418 46.136 350.002 46.36 349.49 46.68C348.978 46.936 348.626 47.128 348.434 47.256C348.242 47.384 347.858 47.64 347.282 48.024C346.706 48.408 346.322 48.664 346.13 48.792C345.554 49.176 345.234 49.368 345.17 49.368C344.914 49.368 344.786 49.24 344.786 48.984C344.786 48.728 344.978 48.472 345.362 48.216C350.546 44.632 354.386 42.84 356.882 42.84C360.594 42.84 362.45 44.632 362.45 48.216C362.45 49.816 361.202 52.664 358.706 56.76C356.274 60.856 353.81 65.016 351.314 69.24C348.882 73.464 347.666 76.632 347.666 78.744C347.666 82.584 349.714 84.504 353.81 84.504C358.738 84.504 365.202 80.632 373.202 72.888C377.17 64.504 381.234 56.856 385.394 49.944C387.634 46.168 389.234 44.28 390.194 44.28C390.962 44.28 391.89 44.568 392.978 45.144C394.13 45.72 394.706 46.456 394.706 47.352C394.706 48.184 394.034 49.528 392.69 51.384C391.346 53.176 389.65 55.384 387.602 58.008C385.618 60.568 384.114 62.776 383.09 64.632C382.962 64.888 382.61 65.528 382.034 66.552C381.458 67.512 381.042 68.216 380.786 68.664C380.594 69.048 380.242 69.72 379.73 70.68C379.282 71.576 378.93 72.344 378.674 72.984C378.482 73.624 378.258 74.36 378.002 75.192C377.746 76.024 377.554 76.856 377.426 77.688C377.298 78.456 377.234 79.224 377.234 79.992C377.234 81.336 377.618 82.456 378.386 83.352C379.218 84.184 380.37 84.6 381.842 84.6C383.89 84.6 386.546 83.832 389.81 82.296C393.074 80.76 396.05 78.872 398.738 76.632C402.706 73.56 407.058 69.08 411.794 63.192C412.05 62.808 412.306 62.616 412.562 62.616C412.818 62.616 412.946 62.744 412.946 63C412.946 63.128 412.882 63.32 412.754 63.576C408.402 69.464 403.986 74.136 399.506 77.592ZM405.879 83.352C407.671 83.352 409.975 82.424 412.791 80.568C415.671 78.648 418.583 75.928 421.527 72.408C423.511 70.04 424.503 67.992 424.503 66.264C424.503 65.432 424.151 64.76 423.447 64.248C419.799 62.328 417.975 60.024 417.975 57.336C417.975 52.792 420.119 49.24 424.407 46.68C428.759 44.12 433.175 42.84 437.655 42.84C439.127 42.84 440.919 42.904 443.031 43.032C445.207 43.16 446.775 43.224 447.735 43.224C448.247 43.224 449.079 43.224 450.231 43.224C451.383 43.16 452.503 43.128 453.591 43.128C454.615 43.128 455.127 43.288 455.127 43.608C455.127 43.736 455.063 43.864 454.935 43.992C454.807 44.056 454.615 44.184 454.359 44.376C454.103 44.568 453.879 44.728 453.687 44.856C453.111 45.432 452.439 46.232 451.671 47.256C447.895 52.44 444.439 58.232 441.303 64.632C438.039 71.288 436.407 76.28 436.407 79.608C436.407 82.232 437.623 83.544 440.055 83.544C442.615 83.544 445.687 82.776 449.271 81.24C452.855 79.704 455.575 78.168 457.431 76.632C461.399 73.56 465.751 69.08 470.487 63.192C470.743 62.808 470.999 62.616 471.255 62.616C471.511 62.616 471.639 62.744 471.639 63C471.639 63.128 471.575 63.32 471.447 63.576C467.095 69.464 462.679 74.136 458.199 77.592C455.831 79.576 452.119 81.72 447.063 84.024C442.071 86.328 437.847 87.48 434.391 87.48C430.423 87.48 428.439 85.816 428.439 82.488C428.439 78.008 430.999 71.224 436.119 62.136C437.079 60.472 438.423 58.264 440.151 55.512C441.879 52.696 443.255 50.424 444.279 48.696C445.303 46.968 445.815 45.912 445.815 45.528C445.815 44.824 444.343 44.472 441.399 44.472H438.615C434.903 44.472 431.767 45.656 429.207 48.024C426.711 50.328 425.463 52.92 425.463 55.8C425.463 59.512 426.679 61.72 429.111 62.424C429.367 62.488 429.783 62.584 430.359 62.712C430.999 62.776 431.511 62.872 431.895 63C432.279 63.064 432.471 63.192 432.471 63.384C432.471 63.576 432.407 63.736 432.279 63.864C432.151 63.992 431.831 64.248 431.319 64.632C430.807 64.952 430.327 65.272 429.879 65.592C429.175 66.168 426.103 69.432 420.663 75.384C413.111 83.384 406.967 87.384 402.231 87.384C400.247 87.384 398.551 86.68 397.143 85.272C395.799 83.864 395.127 82.264 395.127 80.472C395.127 79.896 395.543 79.32 396.375 78.744C397.399 77.976 398.423 77.176 399.447 76.344C400.471 75.512 401.207 74.872 401.655 74.424C402.167 73.976 402.455 73.752 402.519 73.752C402.903 73.752 403.095 73.944 403.095 74.328C403.095 74.456 403.031 74.584 402.903 74.712C402.775 74.84 402.583 75.032 402.327 75.288C402.071 75.544 401.847 75.832 401.655 76.152C401.207 76.856 400.983 77.688 400.983 78.648C400.983 79.8 401.495 80.888 402.519 81.912C403.543 82.872 404.663 83.352 405.879 83.352Z" fill="black"></path> </svg> 