<?xml version="1.0" encoding="UTF-8"?> <svg xmlns="http://www.w3.org/2000/svg" width="50" height="50" viewBox="0 0 50 50" fill="none"> <path d="M15.4242 23.1203L23.9232 37.3446C24.0567 37.5683 24.2974 37.7064 24.5579 37.7084C24.5599 37.7084 24.5624 37.7084 24.5644 37.7084C24.8225 37.7084 25.0627 37.5748 25.1992 37.3556L34.0459 23.1313C34.0679 23.0959 34.0868 23.0591 34.1017 23.0217C35.1595 21.2943 35.7175 19.3213 35.7175 17.3069C35.7175 11.2532 30.7914 6.32812 24.7363 6.32812C18.6832 6.32812 13.7581 11.2532 13.7581 17.3069C13.7581 19.3218 14.3166 21.2953 15.3748 23.0232C15.3888 23.0566 15.4052 23.089 15.4242 23.1203ZM24.7368 7.82335C29.9678 7.82335 34.2233 12.0778 34.2233 17.3074C34.2233 19.0836 33.7196 20.824 32.767 22.3396C32.744 22.3755 32.7251 22.4128 32.7097 22.4517L24.5774 35.5256L16.7719 22.4622C16.755 22.4198 16.7345 22.3785 16.7096 22.3391C15.757 20.8235 15.2533 19.0836 15.2533 17.3069C15.2533 12.0778 19.5078 7.82335 24.7368 7.82335Z" fill="#2C2B29"></path> <path d="M24.7383 21.3895C26.9889 21.3895 28.8199 19.5585 28.8199 17.3079C28.8199 15.0574 26.9889 13.2263 24.7383 13.2263C22.4878 13.2263 20.6567 15.0574 20.6567 17.3079C20.6567 19.5585 22.4878 21.3895 24.7383 21.3895ZM24.7383 14.721C26.1648 14.721 27.3252 15.8814 27.3252 17.3079C27.3252 18.7344 26.1648 19.8948 24.7383 19.8948C23.3119 19.8948 22.1515 18.7344 22.1515 17.3079C22.151 15.8814 23.3119 14.721 24.7383 14.721Z" fill="#2C2B29"></path> <path d="M34.177 42.0007H15.2991C14.8861 42.0007 14.5518 42.3356 14.5518 42.7481C14.5518 43.1606 14.8861 43.4955 15.2991 43.4955H34.177C34.5895 43.4955 34.9243 43.1606 34.9243 42.7481C34.9243 42.3356 34.5895 42.0007 34.177 42.0007Z" fill="#2C2B29"></path> </svg> 