<?xml version="1.0" encoding="UTF-8"?> <svg xmlns="http://www.w3.org/2000/svg" width="820" height="182" viewBox="0 0 820 182" fill="none"> <path d="M47.6213 5.944C53.0613 5.944 61.0613 6.328 71.6213 7.096C82.1813 7.8 90.3413 8.152 96.1013 8.152C100.453 8.152 103.941 7.64 106.565 6.61599C109.189 5.528 110.661 4.184 110.981 2.58399C111.173 1.43199 111.493 0.855993 111.941 0.855993C112.453 0.855993 112.709 1.14399 112.709 1.71999C112.709 3.96 110.437 6.392 105.893 9.016C101.413 11.576 96.5493 12.856 91.3013 12.856H88.0373C83.4293 20.472 78.5013 29.624 73.2533 40.312C68.0693 50.936 64.2933 59.256 61.9253 65.272C59.6213 71.16 58.4693 76.344 58.4693 80.824C58.4693 82.68 59.1733 84.44 60.5813 86.104C62.0533 87.704 64.1013 88.504 66.7253 88.504C69.3493 88.504 72.5813 87.8 76.4213 86.392C80.3253 84.984 83.9093 83.064 87.1733 80.632C91.1413 77.56 95.4933 73.08 100.229 67.192C100.485 66.808 100.741 66.616 100.997 66.616C101.253 66.616 101.381 66.744 101.381 67C101.381 67.128 101.317 67.32 101.189 67.576C96.8373 73.464 92.4213 78.136 87.9413 81.592C84.1653 84.472 79.8453 87.032 74.9813 89.272C70.1173 91.448 65.6373 92.536 61.5413 92.536C58.0213 92.536 55.1413 91.768 52.9013 90.232C50.6613 88.632 49.5413 86.264 49.5413 83.128C49.5413 78.84 50.9813 73.208 53.8613 66.232C55.8453 61.368 58.2773 55.96 61.1573 50.008C64.1013 44.056 67.5573 37.272 71.5253 29.656C75.4933 22.04 78.4053 16.344 80.2613 12.568C76.9333 12.44 71.9733 12.184 65.3813 11.8C58.8533 11.416 54.6293 11.16 52.7093 11.032C46.5013 25.112 40.3893 37.88 34.3733 49.336C27.5253 62.2 21.3813 74.136 15.9413 85.144C15.0453 87 14.2133 88.312 13.4453 89.08C12.6773 89.848 12.0373 90.328 11.5253 90.52C11.0133 90.648 9.92525 90.808 8.26125 91C6.66125 91.192 5.22125 91.512 3.94125 91.96C2.66125 92.408 1.89325 92.632 1.63725 92.632C1.18925 92.632 0.96525 92.472 0.96525 92.152C0.96525 91.96 1.06125 91.768 1.25325 91.576C1.44525 91.384 1.82925 90.968 2.40525 90.328C2.98125 89.688 3.58925 88.888 4.22925 87.928C8.38925 82.04 12.6453 75.128 16.9973 67.192C17.3813 66.424 18.8853 63.64 21.5093 58.84C24.1973 53.976 26.0213 50.68 26.9813 48.952C27.9413 47.224 29.5413 44.184 31.7813 39.832C34.0853 35.48 35.8453 32.024 37.0613 29.464C38.2773 26.904 39.6533 23.864 41.1893 20.344C42.7253 16.824 44.0053 13.592 45.0293 10.648C44.6453 10.584 44.2933 10.552 43.9733 10.552C39.3653 10.552 35.6853 10.968 32.9333 11.8C30.2453 12.568 27.9093 13.944 25.9253 15.928C24.6453 17.208 23.9413 17.848 23.8133 17.848C23.4293 17.848 23.2373 17.656 23.2373 17.272C23.2373 16.888 23.9413 15.992 25.3493 14.584C31.1093 8.824 38.5333 5.944 47.6213 5.944ZM145.822 81.592C141.022 85.432 136.286 88.472 131.614 90.712C126.942 92.952 123.134 94.072 120.19 94.072C118.526 94.072 117.086 93.592 115.87 92.632C114.654 91.672 114.046 90.36 114.046 88.696C114.046 86.52 114.622 84.248 115.774 81.88C116.926 79.512 118.334 77.336 119.998 75.352C121.662 73.368 123.326 71.448 124.99 69.592C126.718 67.672 128.158 65.816 129.31 64.024C130.462 62.168 131.038 60.568 131.038 59.224C131.038 57.112 130.494 55.672 129.406 54.904C128.382 54.072 127.23 53.656 125.95 53.656C123.198 53.656 119.422 55.704 114.622 59.8C109.886 63.832 105.278 68.6 100.798 74.104C97.2778 80.312 94.4298 85.432 92.2538 89.464C88.6698 96.184 82.4297 108.216 73.5337 125.56C64.5737 142.968 56.5097 158.072 49.3417 170.872C48.3177 172.728 47.0057 174.36 45.4057 175.768C43.8057 177.24 42.2697 178.36 40.7977 179.128C39.3257 179.896 37.8537 180.504 36.3817 180.952C34.8457 181.4 33.6937 181.688 32.9257 181.816C32.0937 181.944 31.5177 182.008 31.1978 182.008C30.6217 182.008 30.3337 181.88 30.3337 181.624C30.3337 181.432 30.3977 181.272 30.5257 181.144C30.6537 181.08 30.8457 180.984 31.1017 180.856C31.3577 180.792 31.6777 180.696 32.0617 180.568C32.4457 180.44 32.9257 180.216 33.5017 179.896C34.0777 179.576 34.6857 179.16 35.3257 178.648C36.6057 177.688 38.8777 174.776 42.1417 169.912C45.4057 165.048 51.1337 155.608 59.3257 141.592C67.4537 127.64 77.3097 110.008 88.8938 88.696C93.6298 79.992 96.9258 73.56 98.7818 69.4C100.638 65.176 101.566 62.072 101.566 60.088C101.566 56.888 100.926 54.808 99.6458 53.848C99.1338 53.464 98.8778 53.24 98.8778 53.176C98.8778 53.048 98.9418 52.92 99.0698 52.792C99.2618 52.664 99.5178 52.504 99.8378 52.312C100.158 52.12 100.414 51.96 100.606 51.832C101.054 51.448 101.47 51.096 101.854 50.776C102.302 50.392 102.59 50.104 102.718 49.912C102.91 49.72 103.134 49.592 103.39 49.528C103.71 49.4 104.062 49.336 104.446 49.336C105.406 49.336 106.174 49.912 106.75 51.064C107.39 52.216 107.71 53.88 107.71 56.056C107.71 59.384 106.686 62.968 104.638 66.808C117.374 54.136 127.166 47.8 134.014 47.8C135.358 47.8 136.606 48.312 137.758 49.336C138.91 50.36 139.486 52.088 139.486 54.52C139.486 56.76 138.494 59.48 136.51 62.68C134.59 65.88 132.446 68.824 130.078 71.512C127.774 74.136 125.63 76.856 123.646 79.672C121.726 82.424 120.766 84.536 120.766 86.008C120.766 88.824 122.174 90.232 124.99 90.232C127.55 90.232 130.814 89.176 134.782 87.064C138.814 84.952 142.238 82.808 145.054 80.632C149.022 77.56 153.374 73.08 158.11 67.192C158.43 66.808 158.686 66.616 158.878 66.616C159.134 66.616 159.262 66.744 159.262 67C159.262 67.192 159.198 67.384 159.07 67.576C154.718 73.464 150.302 78.136 145.822 81.592ZM181.682 47.704C185.33 47.704 188.21 48.856 190.322 51.16C192.498 53.464 193.586 56.536 193.586 60.376C193.586 64.6 192.53 68.728 190.417 72.76C188.37 76.792 185.746 80.248 182.546 83.128C179.346 85.944 175.762 88.216 171.794 89.944C167.89 91.672 164.146 92.536 160.562 92.536C156.978 92.536 154.034 91.384 151.73 89.08C149.426 86.712 148.273 83.736 148.273 80.152C148.273 74.904 150.034 69.72 153.554 64.6C157.138 59.48 161.522 55.384 166.706 52.312C171.89 49.24 176.882 47.704 181.682 47.704ZM178.898 49.816C175.506 49.816 172.05 51.352 168.53 54.424C165.01 57.496 162.098 61.336 159.794 65.944C157.554 70.488 156.434 74.872 156.434 79.096C156.434 82.232 157.106 84.856 158.45 86.968C159.794 89.016 161.49 90.04 163.538 90.04C168.722 90.04 173.714 86.776 178.514 80.248C183.378 73.656 185.81 67.064 185.81 60.472C185.81 57.336 185.17 54.776 183.89 52.792C182.674 50.808 181.01 49.816 178.898 49.816ZM214.568 91.768C210.344 91.768 206.76 90.84 203.816 88.984C200.936 87.064 199.496 84.664 199.496 81.784C199.496 78.072 200.808 75.032 203.432 72.664C206.056 70.296 209.896 67.8 214.952 65.176C218.088 63.512 220.328 61.688 221.672 59.704C223.08 57.72 223.784 55.928 223.784 54.328C223.784 53.112 223.368 52.088 222.536 51.256C221.768 50.36 220.648 49.912 219.176 49.912C216.936 49.912 214.376 50.872 211.496 52.792C210.92 53.176 210.6 53.368 210.536 53.368C210.28 53.368 210.152 53.24 210.152 52.984C210.152 52.728 210.344 52.472 210.728 52.216C215.144 48.888 219.368 47.224 223.4 47.224C225.256 47.224 226.952 47.768 228.488 48.856C230.088 49.944 230.888 51.448 230.888 53.368C230.888 54.776 230.632 56.056 230.12 57.208C229.672 58.296 228.84 59.352 227.624 60.376C226.472 61.4 225.416 62.264 224.456 62.968C223.496 63.608 222.024 64.536 220.04 65.752C218.12 66.904 216.648 67.8 215.624 68.44C210.056 72.088 207.272 75.832 207.272 79.672C207.272 82.168 208.328 84.344 210.44 86.2C212.552 87.992 215.464 88.888 219.176 88.888C224.936 88.888 231.4 86.136 238.568 80.632C242.536 77.56 246.888 73.08 251.624 67.192C251.88 66.808 252.136 66.616 252.392 66.616C252.648 66.616 252.776 66.744 252.776 67C252.776 67.128 252.712 67.32 252.584 67.576C248.232 73.464 243.816 78.136 239.336 81.592C235.176 84.984 231.208 87.544 227.432 89.272C223.72 90.936 219.432 91.768 214.568 91.768ZM297.228 81.592C292.428 85.432 287.692 88.472 283.02 90.712C278.348 92.952 274.54 94.072 271.596 94.072C269.932 94.072 268.492 93.592 267.276 92.632C266.06 91.672 265.452 90.36 265.452 88.696C265.452 86.52 266.028 84.248 267.18 81.88C268.332 79.512 269.74 77.336 271.404 75.352C273.068 73.368 274.732 71.448 276.396 69.592C278.124 67.672 279.564 65.816 280.716 64.024C281.868 62.168 282.444 60.568 282.444 59.224C282.444 57.112 281.9 55.672 280.812 54.904C279.788 54.072 278.636 53.656 277.356 53.656C274.604 53.656 270.828 55.704 266.028 59.8C261.292 63.832 256.684 68.6 252.204 74.104C248.684 80.312 245.836 85.432 243.66 89.464C240.076 96.184 233.836 108.216 224.94 125.56C215.98 142.968 207.916 158.072 200.748 170.872C199.724 172.728 198.412 174.36 196.812 175.768C195.212 177.24 193.676 178.36 192.204 179.128C190.732 179.896 189.26 180.504 187.788 180.952C186.252 181.4 185.1 181.688 184.332 181.816C183.5 181.944 182.924 182.008 182.604 182.008C182.028 182.008 181.74 181.88 181.74 181.624C181.74 181.432 181.804 181.272 181.932 181.144C182.06 181.08 182.252 180.984 182.508 180.856C182.764 180.792 183.084 180.696 183.468 180.568C183.852 180.44 184.332 180.216 184.908 179.896C185.484 179.576 186.092 179.16 186.732 178.648C188.012 177.688 190.284 174.776 193.548 169.912C196.812 165.048 202.54 155.608 210.732 141.592C218.86 127.64 228.716 110.008 240.3 88.696C245.036 79.992 248.332 73.56 250.188 69.4C252.044 65.176 252.972 62.072 252.972 60.088C252.972 56.888 252.332 54.808 251.052 53.848C250.54 53.464 250.284 53.24 250.284 53.176C250.284 53.048 250.348 52.92 250.476 52.792C250.668 52.664 250.924 52.504 251.244 52.312C251.564 52.12 251.82 51.96 252.012 51.832C252.46 51.448 252.876 51.096 253.26 50.776C253.708 50.392 253.996 50.104 254.124 49.912C254.316 49.72 254.54 49.592 254.796 49.528C255.116 49.4 255.468 49.336 255.852 49.336C256.812 49.336 257.58 49.912 258.156 51.064C258.796 52.216 259.116 53.88 259.116 56.056C259.116 59.384 258.092 62.968 256.044 66.808C268.78 54.136 278.572 47.8 285.42 47.8C286.764 47.8 288.012 48.312 289.164 49.336C290.316 50.36 290.892 52.088 290.892 54.52C290.892 56.76 289.9 59.48 287.916 62.68C285.996 65.88 283.852 68.824 281.484 71.512C279.18 74.136 277.036 76.856 275.052 79.672C273.132 82.424 272.172 84.536 272.172 86.008C272.172 88.824 273.58 90.232 276.396 90.232C278.956 90.232 282.22 89.176 286.188 87.064C290.22 84.952 293.644 82.808 296.46 80.632C300.428 77.56 304.78 73.08 309.516 67.192C309.836 66.808 310.092 66.616 310.284 66.616C310.54 66.616 310.668 66.744 310.668 67C310.668 67.192 310.604 67.384 310.476 67.576C306.124 73.464 301.708 78.136 297.228 81.592ZM355.936 81.592C346.912 88.632 339.488 92.152 333.664 92.152C328.672 92.152 326.176 89.528 326.176 84.28C318.432 89.08 312.448 91.48 308.224 91.48C305.408 91.48 303.296 90.52 301.888 88.6C300.48 86.616 299.776 84.056 299.776 80.92C299.776 76.248 301.44 71.32 304.768 66.136C308.096 60.888 312.32 56.504 317.44 52.984C322.624 49.464 327.616 47.704 332.416 47.704C335.168 47.704 337.696 48.504 340 50.104C342.368 51.64 343.968 53.88 344.8 56.824C346.464 56.824 347.296 57.528 347.296 58.936C347.296 59.768 347.2 60.568 347.008 61.336C346.88 62.104 346.592 62.904 346.144 63.736C345.76 64.504 345.408 65.176 345.088 65.752C344.832 66.264 344.352 66.936 343.648 67.768C342.944 68.6 342.432 69.176 342.112 69.496C341.856 69.816 341.28 70.424 340.384 71.32C339.552 72.216 339.04 72.76 338.848 72.952C338.464 73.336 337.76 74.008 336.736 74.968C335.712 75.928 334.944 76.664 334.432 77.176C333.664 79.16 333.28 81.272 333.28 83.512C333.28 86.84 335.072 88.504 338.656 88.504C342.688 88.504 348.192 85.88 355.168 80.632C359.136 77.56 363.488 73.08 368.224 67.192C368.48 66.808 368.736 66.616 368.992 66.616C369.248 66.616 369.376 66.744 369.376 67C369.376 67.128 369.312 67.32 369.184 67.576C364.832 73.464 360.416 78.136 355.936 81.592ZM332.128 50.008C328.096 50.008 324.128 51.704 320.224 55.096C316.384 58.424 313.344 62.488 311.104 67.288C308.864 72.024 307.744 76.504 307.744 80.728C307.744 85.72 309.504 88.216 313.024 88.216C316.992 88.216 321.44 86.264 326.368 82.36C328.096 76.216 330.528 71.032 333.664 66.808C337.504 61.368 340.704 58.168 343.264 57.208C342.432 55.032 340.992 53.304 338.944 52.024C336.896 50.68 334.624 50.008 332.128 50.008ZM335.104 75.064C341.568 68.6 344.8 64.184 344.8 61.816C344.8 61.304 344.544 61.048 344.032 61.048C342.56 61.048 339.584 65.72 335.104 75.064ZM419.229 81.688C419.229 86.04 421.149 88.216 424.989 88.216C430.173 88.216 436.029 85.688 442.557 80.632C446.525 77.56 450.877 73.08 455.613 67.192C455.869 66.808 456.125 66.616 456.381 66.616C456.637 66.616 456.765 66.744 456.765 67C456.765 67.128 456.701 67.32 456.573 67.576C452.221 73.464 447.805 78.136 443.325 81.592C434.877 88.184 427.005 91.48 419.709 91.48C417.085 91.48 415.005 90.744 413.469 89.272C411.933 87.8 411.165 85.912 411.165 83.608C411.165 80.216 413.053 74.904 416.829 67.672C415.037 69.784 411.677 73.528 406.749 78.904C399.325 86.968 393.181 91 388.317 91C384.413 91 382.461 88.952 382.461 84.856C382.461 79.288 384.669 72.248 389.085 63.736C388.829 64.12 387.901 65.464 386.301 67.768C384.701 70.008 383.133 72.12 381.597 74.104C380.125 76.024 378.621 77.784 377.085 79.384C372.861 83.864 369.085 87 365.757 88.792C362.493 90.52 359.933 91.384 358.077 91.384C353.853 91.384 351.741 89.784 351.741 86.584C351.741 85.56 351.901 84.696 352.221 83.992C352.541 83.224 352.861 82.68 353.181 82.36C353.501 82.04 354.077 81.592 354.909 81.016C355.741 80.44 356.285 80.024 356.541 79.768C357.309 79.128 358.109 78.424 358.941 77.656C359.773 76.888 360.349 76.376 360.669 76.12C360.989 75.8 361.245 75.64 361.437 75.64C361.629 75.64 361.725 75.736 361.725 75.928C361.725 76.184 361.469 76.568 360.957 77.08C358.653 79.128 357.501 81.272 357.501 83.512C357.501 84.792 357.885 85.816 358.653 86.584C359.421 87.352 360.413 87.736 361.629 87.736C363.293 87.736 365.597 86.712 368.541 84.664C371.549 82.616 374.685 79.864 377.949 76.408C379.549 74.744 381.053 72.984 382.461 71.128C383.933 69.208 384.989 67.768 385.629 66.808C386.333 65.784 387.325 64.248 388.605 62.2C389.949 60.088 390.717 58.904 390.909 58.648C391.421 57.88 392.157 56.472 393.117 54.424C394.141 52.312 395.069 50.904 395.901 50.2C396.669 49.496 398.333 48.696 400.893 47.8C401.277 47.672 401.661 47.48 402.045 47.224C402.493 46.968 402.781 46.84 402.909 46.84C403.165 46.84 403.293 47.032 403.293 47.416C403.293 47.672 403.037 48.28 402.525 49.24C402.013 50.136 401.277 51.416 400.317 53.08C399.357 54.68 398.525 56.216 397.821 57.688C395.645 62.104 393.885 66.68 392.541 71.416C391.197 76.088 390.525 79.992 390.525 83.128C390.525 85.432 391.485 86.584 393.405 86.584C396.477 86.584 400.637 83.768 405.885 78.136C411.773 71.928 416.605 65.912 420.381 60.088C420.893 59.32 421.565 58.168 422.397 56.632C423.293 55.096 424.093 53.784 424.797 52.696C425.501 51.544 426.141 50.68 426.717 50.104C427.357 49.464 428.701 48.76 430.749 47.992C432.477 47.288 433.853 46.936 434.877 46.936C435.261 46.936 435.453 47.224 435.453 47.8C435.453 48.056 435.037 48.632 434.205 49.528C433.437 50.36 432.445 51.544 431.229 53.08C430.013 54.616 429.021 56.152 428.253 57.688C426.269 61.528 424.765 64.536 423.741 66.712C422.717 68.888 421.693 71.448 420.669 74.392C419.709 77.336 419.229 79.768 419.229 81.688ZM506.604 81.688C506.604 86.04 508.524 88.216 512.364 88.216C517.548 88.216 523.404 85.688 529.932 80.632C533.9 77.56 538.252 73.08 542.988 67.192C543.244 66.808 543.5 66.616 543.756 66.616C544.012 66.616 544.14 66.744 544.14 67C544.14 67.128 544.076 67.32 543.948 67.576C539.596 73.464 535.18 78.136 530.7 81.592C522.252 88.184 514.38 91.48 507.084 91.48C504.46 91.48 502.38 90.744 500.844 89.272C499.308 87.8 498.54 85.912 498.54 83.608C498.54 80.216 500.428 74.904 504.204 67.672C502.412 69.784 499.052 73.528 494.124 78.904C486.7 86.968 480.556 91 475.692 91C471.788 91 469.836 88.952 469.836 84.856C469.836 79.288 472.044 72.248 476.46 63.736C476.204 64.12 475.276 65.464 473.676 67.768C472.076 70.008 470.508 72.12 468.972 74.104C467.5 76.024 465.996 77.784 464.46 79.384C460.236 83.864 456.46 87 453.132 88.792C449.868 90.52 447.308 91.384 445.452 91.384C441.228 91.384 439.116 89.784 439.116 86.584C439.116 85.56 439.276 84.696 439.596 83.992C439.916 83.224 440.236 82.68 440.556 82.36C440.876 82.04 441.452 81.592 442.284 81.016C443.116 80.44 443.66 80.024 443.916 79.768C444.684 79.128 445.484 78.424 446.316 77.656C447.148 76.888 447.724 76.376 448.044 76.12C448.364 75.8 448.62 75.64 448.812 75.64C449.004 75.64 449.1 75.736 449.1 75.928C449.1 76.184 448.844 76.568 448.332 77.08C446.028 79.128 444.876 81.272 444.876 83.512C444.876 84.792 445.26 85.816 446.028 86.584C446.796 87.352 447.788 87.736 449.004 87.736C450.668 87.736 452.972 86.712 455.916 84.664C458.924 82.616 462.06 79.864 465.324 76.408C466.924 74.744 468.428 72.984 469.836 71.128C471.308 69.208 472.364 67.768 473.004 66.808C473.708 65.784 474.7 64.248 475.98 62.2C477.324 60.088 478.092 58.904 478.284 58.648C478.796 57.88 479.532 56.472 480.492 54.424C481.516 52.312 482.444 50.904 483.276 50.2C484.044 49.496 485.708 48.696 488.268 47.8C488.652 47.672 489.036 47.48 489.42 47.224C489.868 46.968 490.156 46.84 490.284 46.84C490.54 46.84 490.668 47.032 490.668 47.416C490.668 47.672 490.412 48.28 489.9 49.24C489.388 50.136 488.652 51.416 487.692 53.08C486.732 54.68 485.9 56.216 485.196 57.688C483.02 62.104 481.26 66.68 479.916 71.416C478.572 76.088 477.9 79.992 477.9 83.128C477.9 85.432 478.86 86.584 480.78 86.584C483.852 86.584 488.012 83.768 493.26 78.136C499.148 71.928 503.98 65.912 507.756 60.088C508.268 59.32 508.94 58.168 509.772 56.632C510.668 55.096 511.468 53.784 512.172 52.696C512.876 51.544 513.516 50.68 514.092 50.104C514.732 49.464 516.076 48.76 518.124 47.992C519.852 47.288 521.228 46.936 522.252 46.936C522.636 46.936 522.828 47.224 522.828 47.8C522.828 48.056 522.412 48.632 521.58 49.528C520.812 50.36 519.82 51.544 518.604 53.08C517.388 54.616 516.396 56.152 515.628 57.688C513.644 61.528 512.14 64.536 511.116 66.712C510.092 68.888 509.068 71.448 508.044 74.392C507.084 77.336 506.604 79.768 506.604 81.688ZM589.467 81.592C580.443 88.632 573.019 92.152 567.195 92.152C562.203 92.152 559.707 89.528 559.707 84.28C551.963 89.08 545.979 91.48 541.755 91.48C538.939 91.48 536.827 90.52 535.419 88.6C534.011 86.616 533.307 84.056 533.307 80.92C533.307 76.248 534.971 71.32 538.299 66.136C541.627 60.888 545.851 56.504 550.971 52.984C556.155 49.464 561.147 47.704 565.947 47.704C568.699 47.704 571.227 48.504 573.531 50.104C575.899 51.64 577.499 53.88 578.331 56.824C579.995 56.824 580.827 57.528 580.827 58.936C580.827 59.768 580.731 60.568 580.539 61.336C580.411 62.104 580.123 62.904 579.675 63.736C579.291 64.504 578.939 65.176 578.619 65.752C578.363 66.264 577.883 66.936 577.179 67.768C576.475 68.6 575.963 69.176 575.643 69.496C575.387 69.816 574.811 70.424 573.915 71.32C573.083 72.216 572.571 72.76 572.379 72.952C571.995 73.336 571.291 74.008 570.267 74.968C569.243 75.928 568.475 76.664 567.963 77.176C567.195 79.16 566.811 81.272 566.811 83.512C566.811 86.84 568.603 88.504 572.187 88.504C576.219 88.504 581.723 85.88 588.699 80.632C592.667 77.56 597.019 73.08 601.755 67.192C602.011 66.808 602.267 66.616 602.523 66.616C602.779 66.616 602.907 66.744 602.907 67C602.907 67.128 602.843 67.32 602.715 67.576C598.363 73.464 593.947 78.136 589.467 81.592ZM565.659 50.008C561.627 50.008 557.659 51.704 553.755 55.096C549.915 58.424 546.875 62.488 544.635 67.288C542.395 72.024 541.275 76.504 541.275 80.728C541.275 85.72 543.035 88.216 546.555 88.216C550.523 88.216 554.971 86.264 559.899 82.36C561.627 76.216 564.059 71.032 567.195 66.808C571.035 61.368 574.235 58.168 576.795 57.208C575.963 55.032 574.523 53.304 572.475 52.024C570.427 50.68 568.155 50.008 565.659 50.008ZM568.635 75.064C575.099 68.6 578.331 64.184 578.331 61.816C578.331 61.304 578.075 61.048 577.563 61.048C576.091 61.048 573.115 65.72 568.635 75.064ZM593.233 173.176C587.857 173.176 583.025 171.192 578.737 167.224C574.449 163.32 572.305 158.328 572.305 152.248C572.305 148.28 573.137 144.472 574.801 140.824C576.401 137.176 578.449 133.912 580.945 131.032C583.377 128.216 586.513 125.432 590.353 122.68C594.193 119.992 597.873 117.688 601.393 115.768C604.849 113.912 608.913 112.024 613.585 110.104C618.193 108.248 622.097 106.776 625.297 105.688C628.433 104.6 631.985 103.416 635.953 102.136C639.025 101.24 640.657 100.792 640.849 100.792C641.425 100.792 641.713 101.016 641.713 101.464C641.713 101.656 641.649 101.816 641.521 101.944C641.393 102.136 641.169 102.296 640.849 102.424C640.593 102.616 640.337 102.744 640.081 102.808C639.889 102.872 639.537 102.968 639.025 103.096C638.577 103.288 638.257 103.416 638.065 103.48C625.777 107.448 617.649 110.232 613.681 111.832C594.801 119.576 583.697 129.368 580.369 141.208C579.665 143.832 579.313 146.584 579.313 149.464C579.313 155.16 581.201 159.896 584.977 163.672C588.689 167.448 593.329 169.336 598.897 169.336C604.977 169.336 610.641 166.776 615.889 161.656C621.073 156.6 626.321 149.496 631.633 140.344C650.961 106.68 663.761 84.6 670.033 74.104H669.937C665.521 78.776 660.529 82.776 654.961 86.104C649.393 89.368 644.273 91 639.601 91C636.913 91 634.865 90.104 633.457 88.312C632.113 86.456 631.441 84.024 631.441 81.016C631.441 76.472 633.105 71.48 636.433 66.04C639.825 60.6 644.049 55.992 649.105 52.216C654.161 48.376 658.865 46.456 663.217 46.456C669.745 46.456 674.929 50.68 678.769 59.128L679.345 57.976C679.729 57.144 680.049 56.6 680.305 56.344C680.561 56.024 680.977 55.832 681.553 55.768C682.129 55.704 682.449 55.672 682.513 55.672C682.577 55.672 682.769 55.608 683.089 55.48C683.473 55.352 683.729 55.288 683.857 55.288C683.921 55.288 684.017 55.352 684.145 55.48C684.337 55.608 684.433 55.736 684.433 55.864C684.433 56.248 684.241 56.632 683.857 57.016C683.601 57.272 683.313 57.72 682.993 58.36C682.673 58.936 682.257 59.672 681.745 60.568C681.297 61.464 680.913 62.2 680.593 62.776C680.977 63.544 681.169 64.184 681.169 64.696C681.169 65.208 680.977 65.464 680.593 65.464C680.529 65.464 680.273 65.016 679.825 64.12L639.217 139.672C637.233 143.32 634.641 147.032 631.441 150.808C628.241 154.648 624.657 158.264 620.689 161.656C616.657 165.048 612.209 167.8 607.345 169.912C602.481 172.088 597.777 173.176 593.233 173.176ZM678.001 60.28C674.161 53.368 669.297 49.912 663.409 49.912C660.273 49.912 656.817 51.448 653.041 54.52C649.329 57.528 646.129 61.528 643.441 66.52C640.753 71.512 639.409 76.408 639.409 81.208C639.409 82.744 639.921 84.184 640.945 85.528C642.033 86.872 643.313 87.544 644.785 87.544C651.249 87.544 660.145 81.88 671.473 70.552C673.073 68.952 675.249 65.528 678.001 60.28ZM710.936 51.544C710.936 52.76 710.264 54.84 708.92 57.784C707.64 60.664 706.36 63.256 705.08 65.56L703.16 69.016C705.592 69.208 707.576 69.304 709.112 69.304C714.616 69.304 720.024 68.12 725.336 65.752C729.112 59.672 732.248 54.936 734.744 51.544C735.832 50.008 737.944 48.984 741.08 48.472C741.464 48.408 742.168 48.248 743.192 47.992C744.28 47.736 745.016 47.608 745.4 47.608C745.72 47.608 745.88 47.736 745.88 47.992C745.88 48.12 745.624 48.376 745.112 48.76C744.6 49.08 743.64 49.944 742.232 51.352C740.888 52.696 739.416 54.424 737.816 56.536C733.912 61.784 730.616 67.032 727.928 72.28C725.24 77.464 723.896 81.528 723.896 84.472C723.896 87.992 725.624 89.752 729.08 89.752C732.856 89.752 738.712 86.712 746.648 80.632C750.616 77.56 754.968 73.08 759.704 67.192C759.96 66.808 760.216 66.616 760.472 66.616C760.728 66.616 760.856 66.744 760.856 67C760.856 67.128 760.792 67.32 760.664 67.576C756.312 73.464 751.896 78.136 747.416 81.592C742.872 85.304 738.776 88.184 735.128 90.232C731.544 92.216 727.864 93.208 724.088 93.208C718.904 93.208 716.312 90.872 716.312 86.2C716.312 82.424 718.808 76.6 723.8 68.728C718.744 70.712 711.288 71.96 701.432 72.472C699.768 76.056 696.28 82.2 690.968 90.904C690.84 91.096 690.648 91.256 690.392 91.384C690.2 91.576 689.88 91.704 689.432 91.768C688.984 91.896 688.6 91.992 688.28 92.056C688.024 92.12 687.576 92.184 686.936 92.248C686.296 92.312 685.816 92.376 685.496 92.44C684.856 92.568 684.184 92.824 683.48 93.208C682.776 93.592 682.36 93.784 682.232 93.784C681.848 93.784 681.656 93.624 681.656 93.304C681.656 93.176 681.784 92.92 682.04 92.536C682.36 92.152 682.872 91.48 683.576 90.52C684.344 89.496 685.112 88.344 685.88 87.064C688.696 82.648 691.384 78.04 693.944 73.24C693.816 72.216 693.592 71.256 693.272 70.36C692.952 69.4 692.792 68.792 692.792 68.536C692.792 68.344 692.888 68.12 693.08 67.864C693.272 67.608 693.4 67.48 693.464 67.48C693.656 67.48 694.136 67.576 694.904 67.768C695.736 67.896 696.376 67.992 696.824 68.056C701.304 60.12 703.544 54.968 703.544 52.6C703.544 50.552 702.904 49.528 701.624 49.528C700.152 49.528 697.784 50.616 694.52 52.792C693.944 53.176 693.624 53.368 693.56 53.368C693.304 53.368 693.176 53.24 693.176 52.984C693.176 52.728 693.368 52.472 693.752 52.216C698.552 48.632 702.392 46.84 705.272 46.84C707.128 46.84 708.536 47.288 709.496 48.184C710.456 49.016 710.936 50.136 710.936 51.544ZM753.707 87.352C755.499 87.352 757.803 86.424 760.619 84.568C763.499 82.648 766.411 79.928 769.355 76.408C771.339 74.04 772.331 71.992 772.331 70.264C772.331 69.432 771.979 68.76 771.275 68.248C767.627 66.328 765.803 64.024 765.803 61.336C765.803 56.792 767.947 53.24 772.235 50.68C776.587 48.12 781.003 46.84 785.483 46.84C786.955 46.84 788.747 46.904 790.859 47.032C793.035 47.16 794.603 47.224 795.563 47.224C796.075 47.224 796.907 47.224 798.059 47.224C799.211 47.16 800.331 47.128 801.419 47.128C802.443 47.128 802.955 47.288 802.955 47.608C802.955 47.736 802.891 47.864 802.763 47.992C802.635 48.056 802.443 48.184 802.187 48.376C801.931 48.568 801.707 48.728 801.515 48.856C800.939 49.432 800.267 50.232 799.499 51.256C795.723 56.44 792.267 62.232 789.131 68.632C785.867 75.288 784.235 80.28 784.235 83.608C784.235 86.232 785.451 87.544 787.883 87.544C790.443 87.544 793.515 86.776 797.099 85.24C800.683 83.704 803.403 82.168 805.259 80.632C809.227 77.56 813.579 73.08 818.315 67.192C818.571 66.808 818.827 66.616 819.083 66.616C819.339 66.616 819.467 66.744 819.467 67C819.467 67.128 819.403 67.32 819.275 67.576C814.923 73.464 810.507 78.136 806.027 81.592C803.659 83.576 799.947 85.72 794.891 88.024C789.899 90.328 785.675 91.48 782.219 91.48C778.251 91.48 776.267 89.816 776.267 86.488C776.267 82.008 778.827 75.224 783.947 66.136C784.907 64.472 786.251 62.264 787.979 59.512C789.707 56.696 791.083 54.424 792.107 52.696C793.131 50.968 793.643 49.912 793.643 49.528C793.643 48.824 792.171 48.472 789.227 48.472H786.443C782.731 48.472 779.595 49.656 777.035 52.024C774.539 54.328 773.291 56.92 773.291 59.8C773.291 63.512 774.507 65.72 776.939 66.424C777.195 66.488 777.611 66.584 778.187 66.712C778.827 66.776 779.339 66.872 779.723 67C780.107 67.064 780.299 67.192 780.299 67.384C780.299 67.576 780.235 67.736 780.107 67.864C779.979 67.992 779.659 68.248 779.147 68.632C778.635 68.952 778.155 69.272 777.707 69.592C777.003 70.168 773.931 73.432 768.491 79.384C760.939 87.384 754.795 91.384 750.059 91.384C748.075 91.384 746.379 90.68 744.971 89.272C743.627 87.864 742.955 86.264 742.955 84.472C742.955 83.896 743.371 83.32 744.203 82.744C745.227 81.976 746.251 81.176 747.275 80.344C748.299 79.512 749.035 78.872 749.483 78.424C749.995 77.976 750.283 77.752 750.347 77.752C750.731 77.752 750.923 77.944 750.923 78.328C750.923 78.456 750.859 78.584 750.731 78.712C750.603 78.84 750.411 79.032 750.155 79.288C749.899 79.544 749.675 79.832 749.483 80.152C749.035 80.856 748.811 81.688 748.811 82.648C748.811 83.8 749.323 84.888 750.347 85.912C751.371 86.872 752.491 87.352 753.707 87.352Z" fill="black"></path> </svg> 