<?xml version="1.0" encoding="UTF-8"?> <svg xmlns="http://www.w3.org/2000/svg" width="909" height="194" viewBox="0 0 909 194" fill="none"> <path d="M15.2715 104.376C17.5755 106.424 20.0075 107.896 22.5675 108.792C25.1275 109.688 28.5515 110.136 32.8395 110.136C37.1915 110.136 41.5755 109.048 45.9915 106.872C50.4075 104.696 54.2155 102.008 57.4155 98.808C60.6155 95.608 63.2075 92.184 65.1915 88.536C67.2395 84.824 68.2635 81.496 68.2635 78.552C68.2635 69.72 64.5515 65.304 57.1275 65.304C51.0475 65.304 45.5755 67.096 40.7115 70.68C35.8475 74.264 30.9835 79.192 26.1195 85.464C24.7755 87.128 23.4955 89.048 22.2795 91.224C21.0635 93.336 19.7515 95.8 18.3435 98.616C16.9355 101.368 15.9115 103.288 15.2715 104.376ZM12.7755 109.944C11.0475 109.944 8.8715 110.456 6.2475 111.48C3.6235 112.568 2.0875 113.112 1.6395 113.112C1.1915 113.112 0.9675 112.888 0.9675 112.44C0.9675 112.248 1.1595 111.928 1.5435 111.48C1.9275 111.096 2.5355 110.392 3.3675 109.368C4.1995 108.28 5.0315 107.064 5.8635 105.72C8.0395 102.072 11.5275 95.896 16.3275 87.192C32.1355 58.328 42.0875 39.192 46.1835 29.784C44.9675 29.72 44.0395 29.688 43.3995 29.688C40.3915 29.688 37.2875 30.232 34.0875 31.32C30.9515 32.408 28.3595 33.944 26.3115 35.928C25.0315 37.208 24.3275 37.848 24.1995 37.848C23.8155 37.848 23.6235 37.656 23.6235 37.272C23.6235 36.888 24.3275 35.992 25.7355 34.584C31.3675 28.824 38.9195 25.944 48.3915 25.944C51.5915 25.944 56.1355 26.168 62.0235 26.616C67.9755 27 73.2875 27.192 77.9595 27.192C84.8075 27.192 88.4875 25.848 88.9995 23.16C89.1915 22.008 89.5115 21.432 89.9595 21.432C90.4715 21.432 90.7275 21.72 90.7275 22.296C90.7275 24.408 88.7755 26.52 84.8715 28.632C81.0315 30.744 76.8715 31.8 72.3915 31.8C65.8635 31.8 60.0075 31.416 54.8235 30.648C50.7915 37.432 43.0795 51.576 31.6875 73.08C41.0955 65.976 50.4715 62.424 59.8155 62.424C64.8715 62.424 68.9355 64.024 72.0075 67.224C75.1435 70.36 76.7115 74.552 76.7115 79.8C76.7115 85.432 74.3435 90.808 69.6075 95.928C64.8715 101.048 59.0795 105.048 52.2315 107.928C45.3835 110.808 38.6955 112.248 32.1675 112.248C28.4555 112.248 24.6795 111.864 20.8395 111.096C16.9995 110.328 14.3115 109.944 12.7755 109.944ZM104.921 119.16C102.681 119.928 98.7765 121.176 93.2085 122.904C87.6405 124.632 83.5125 125.976 80.8245 126.936C73.7845 129.432 67.4165 132.376 61.7205 135.768C55.9605 139.16 51.1285 143.224 47.2245 147.96C43.3205 152.696 41.3685 157.528 41.3685 162.456C41.3685 170.264 45.1765 174.168 52.7925 174.168C59.1925 174.168 65.7845 171.576 72.5685 166.392C79.2885 161.208 85.4645 153.592 91.0965 143.544C96.2165 134.584 100.825 126.456 104.921 119.16ZM140.633 101.592C134.041 107.16 124.505 112.184 112.025 116.664L95.6085 143.064C89.1445 153.496 81.7525 161.848 73.4325 168.12C65.0485 174.456 56.7925 177.624 48.6645 177.624C43.8645 177.624 40.2485 176.184 37.8165 173.304C35.3845 170.424 34.1685 167.224 34.1685 163.704C34.1685 160.76 34.7445 157.88 35.8965 155.064C37.0485 152.312 38.5205 149.848 40.3125 147.672C42.0405 145.56 44.2805 143.448 47.0325 141.336C49.7205 139.288 52.3445 137.528 54.9045 136.056C57.4005 134.584 60.3445 133.08 63.7365 131.544C67.0645 130.072 69.9125 128.888 72.2805 127.992C74.6485 127.096 77.3365 126.136 80.3445 125.112C84.0565 123.832 89.0805 122.2 95.4165 120.216C101.753 118.232 105.337 117.112 106.169 116.856L113.945 102.936C106.521 108.888 99.0005 111.864 91.3845 111.864C89.4645 111.864 87.7045 111.32 86.1045 110.232C84.5685 109.08 83.8005 107.544 83.8005 105.624C83.8005 103.064 84.5685 100.184 86.1045 96.984C87.7045 93.784 89.4325 90.904 91.2885 88.344C93.1445 85.784 94.8405 83.064 96.3765 80.184C97.9765 77.24 98.7765 74.776 98.7765 72.792C98.7765 71.128 97.8805 70.296 96.0885 70.296C93.9765 70.296 91.6725 71.128 89.1765 72.792C88.6005 73.176 88.2805 73.368 88.2165 73.368C87.9605 73.368 87.8325 73.24 87.8325 72.984C87.8325 72.728 88.0245 72.472 88.4085 72.216C92.5045 69.4 96.0245 67.992 98.9685 67.992C101.017 67.992 102.649 68.504 103.865 69.528C105.081 70.552 105.689 72.088 105.689 74.136C105.689 76.184 103.257 81.016 98.3925 88.632C93.5925 96.248 91.1925 101.304 91.1925 103.8C91.1925 107.064 92.7925 108.696 95.9925 108.696C98.6165 108.696 101.881 107.8 105.785 106.008C109.689 104.216 112.921 102.232 115.481 100.056L125.849 80.088C126.361 79.128 126.905 78.04 127.481 76.824C128.121 75.608 128.569 74.712 128.825 74.136C129.145 73.56 129.497 72.952 129.881 72.312C130.329 71.672 130.777 71.224 131.225 70.968C131.673 70.712 132.185 70.552 132.76 70.488C135.321 70.232 137.113 70.104 138.137 70.104C138.521 70.104 138.713 70.296 138.713 70.68C138.713 70.936 138.233 71.896 137.273 73.56C136.313 75.224 135.033 77.368 133.433 79.992C131.897 82.552 130.777 84.44 130.073 85.656C123.161 97.944 117.625 107.544 113.465 114.456C123.449 110.936 132.249 106.328 139.865 100.632C143.833 97.56 148.185 93.08 152.921 87.192C153.177 86.808 153.433 86.616 153.689 86.616C153.945 86.616 154.073 86.744 154.073 87C154.073 87.128 154.009 87.32 153.881 87.576C149.529 93.464 145.113 98.136 140.633 101.592ZM104.045 193.176C98.6692 193.176 93.8372 191.192 89.5492 187.224C85.2612 183.32 83.1172 178.328 83.1172 172.248C83.1172 168.28 83.9492 164.472 85.6132 160.824C87.2132 157.176 89.2612 153.912 91.7572 151.032C94.1892 148.216 97.3252 145.432 101.165 142.68C105.005 139.992 108.685 137.688 112.205 135.768C115.661 133.912 119.725 132.024 124.397 130.104C129.005 128.248 132.909 126.776 136.109 125.688C139.245 124.6 142.797 123.416 146.765 122.136C149.837 121.24 151.469 120.792 151.661 120.792C152.237 120.792 152.525 121.016 152.525 121.464C152.525 121.656 152.461 121.816 152.333 121.944C152.205 122.136 151.981 122.296 151.661 122.424C151.405 122.616 151.149 122.744 150.893 122.808C150.701 122.872 150.349 122.968 149.837 123.096C149.389 123.288 149.069 123.416 148.877 123.48C136.589 127.448 128.461 130.232 124.493 131.832C105.613 139.576 94.5092 149.368 91.1812 161.208C90.4772 163.832 90.1252 166.584 90.1252 169.464C90.1252 175.16 92.0132 179.896 95.7892 183.672C99.5012 187.448 104.141 189.336 109.709 189.336C115.789 189.336 121.453 186.776 126.701 181.656C131.885 176.6 137.133 169.496 142.445 160.344C161.773 126.68 174.573 104.6 180.845 94.104H180.749C176.333 98.776 171.341 102.776 165.773 106.104C160.205 109.368 155.085 111 150.413 111C147.725 111 145.677 110.104 144.269 108.312C142.925 106.456 142.253 104.024 142.253 101.016C142.253 96.472 143.917 91.48 147.245 86.04C150.637 80.6 154.861 75.992 159.917 72.216C164.973 68.376 169.677 66.456 174.029 66.456C180.557 66.456 185.741 70.68 189.581 79.128L190.157 77.976C190.541 77.144 190.861 76.6 191.117 76.344C191.373 76.024 191.789 75.832 192.365 75.768C192.941 75.704 193.261 75.672 193.325 75.672C193.389 75.672 193.581 75.608 193.901 75.48C194.285 75.352 194.541 75.288 194.669 75.288C194.733 75.288 194.829 75.352 194.957 75.48C195.149 75.608 195.245 75.736 195.245 75.864C195.245 76.248 195.053 76.632 194.669 77.016C194.413 77.272 194.125 77.72 193.805 78.36C193.485 78.936 193.069 79.672 192.557 80.568C192.109 81.464 191.725 82.2 191.405 82.776C191.789 83.544 191.981 84.184 191.981 84.696C191.981 85.208 191.789 85.464 191.405 85.464C191.341 85.464 191.085 85.016 190.637 84.12L150.029 159.672C148.045 163.32 145.453 167.032 142.253 170.808C139.053 174.648 135.469 178.264 131.501 181.656C127.469 185.048 123.021 187.8 118.157 189.912C113.293 192.088 108.589 193.176 104.045 193.176ZM188.813 80.28C184.973 73.368 180.109 69.912 174.221 69.912C171.085 69.912 167.629 71.448 163.853 74.52C160.141 77.528 156.941 81.528 154.253 86.52C151.565 91.512 150.221 96.408 150.221 101.208C150.221 102.744 150.733 104.184 151.757 105.528C152.845 106.872 154.125 107.544 155.597 107.544C162.061 107.544 170.957 101.88 182.285 90.552C183.885 88.952 186.061 85.528 188.813 80.28ZM209.749 86.808C222.421 83.736 228.757 79.128 228.757 72.984C228.757 72.28 228.533 71.672 228.085 71.16C227.701 70.584 227.093 70.296 226.261 70.296C223.573 70.296 220.757 71.864 217.813 75C214.869 78.136 212.181 82.072 209.749 86.808ZM210.997 112.536C207.349 112.536 204.277 111.544 201.781 109.56C199.285 107.576 198.037 104.76 198.037 101.112C198.037 97.72 198.837 94.328 200.437 90.936C202.101 87.48 204.181 84.408 206.677 81.72C209.237 79.032 211.989 76.6 214.933 74.424C217.877 72.248 220.725 70.584 223.477 69.432C226.293 68.28 228.693 67.704 230.677 67.704C232.021 67.704 233.173 68.152 234.133 69.048C235.157 69.88 235.669 71.032 235.669 72.504C235.669 73.08 235.413 73.88 234.901 74.904C234.389 75.864 233.461 77.016 232.117 78.36C230.837 79.704 229.237 81.016 227.317 82.296C225.397 83.576 222.805 84.824 219.541 86.04C216.341 87.256 212.789 88.184 208.885 88.824C206.837 92.92 205.813 96.984 205.813 101.016C205.813 103.96 206.677 106.2 208.405 107.736C210.133 109.272 212.373 110.04 215.125 110.04C218.261 110.04 222.037 109.112 226.453 107.256C230.869 105.4 234.773 103.192 238.165 100.632C242.133 97.56 246.485 93.08 251.221 87.192C251.477 86.808 251.733 86.616 251.989 86.616C252.245 86.616 252.373 86.744 252.373 87C252.373 87.128 252.309 87.32 252.181 87.576C247.829 93.464 243.413 98.136 238.933 101.592C229.973 108.888 220.661 112.536 210.997 112.536ZM302.229 101.688C302.229 106.04 304.149 108.216 307.989 108.216C313.173 108.216 319.029 105.688 325.557 100.632C329.525 97.56 333.877 93.08 338.613 87.192C338.869 86.808 339.125 86.616 339.381 86.616C339.637 86.616 339.765 86.744 339.765 87C339.765 87.128 339.701 87.32 339.573 87.576C335.221 93.464 330.805 98.136 326.325 101.592C317.877 108.184 310.005 111.48 302.709 111.48C300.085 111.48 298.005 110.744 296.469 109.272C294.933 107.8 294.165 105.912 294.165 103.608C294.165 100.216 296.053 94.904 299.829 87.672C298.037 89.784 294.677 93.528 289.749 98.904C282.325 106.968 276.181 111 271.317 111C267.413 111 265.461 108.952 265.461 104.856C265.461 99.288 267.669 92.248 272.085 83.736C271.829 84.12 270.901 85.464 269.301 87.768C267.701 90.008 266.133 92.12 264.597 94.104C263.125 96.024 261.621 97.784 260.085 99.384C255.861 103.864 252.085 107 248.757 108.792C245.493 110.52 242.933 111.384 241.077 111.384C236.853 111.384 234.741 109.784 234.741 106.584C234.741 105.56 234.901 104.696 235.221 103.992C235.541 103.224 235.861 102.68 236.181 102.36C236.501 102.04 237.077 101.592 237.909 101.016C238.741 100.44 239.285 100.024 239.541 99.768C240.309 99.128 241.109 98.424 241.941 97.656C242.773 96.888 243.349 96.376 243.669 96.12C243.989 95.8 244.245 95.64 244.437 95.64C244.629 95.64 244.725 95.736 244.725 95.928C244.725 96.184 244.469 96.568 243.957 97.08C241.653 99.128 240.501 101.272 240.501 103.512C240.501 104.792 240.885 105.816 241.653 106.584C242.421 107.352 243.413 107.736 244.629 107.736C246.293 107.736 248.597 106.712 251.541 104.664C254.549 102.616 257.685 99.864 260.949 96.408C262.549 94.744 264.053 92.984 265.461 91.128C266.933 89.208 267.989 87.768 268.629 86.808C269.333 85.784 270.325 84.248 271.605 82.2C272.949 80.088 273.717 78.904 273.909 78.648C274.421 77.88 275.157 76.472 276.117 74.424C277.141 72.312 278.069 70.904 278.901 70.2C279.669 69.496 281.333 68.696 283.893 67.8C284.277 67.672 284.661 67.48 285.045 67.224C285.493 66.968 285.781 66.84 285.909 66.84C286.165 66.84 286.293 67.032 286.293 67.416C286.293 67.672 286.037 68.28 285.525 69.24C285.013 70.136 284.277 71.416 283.317 73.08C282.357 74.68 281.525 76.216 280.821 77.688C278.645 82.104 276.885 86.68 275.541 91.416C274.197 96.088 273.525 99.992 273.525 103.128C273.525 105.432 274.485 106.584 276.405 106.584C279.477 106.584 283.637 103.768 288.885 98.136C294.773 91.928 299.605 85.912 303.381 80.088C303.893 79.32 304.565 78.168 305.397 76.632C306.293 75.096 307.093 73.784 307.797 72.696C308.501 71.544 309.141 70.68 309.717 70.104C310.357 69.464 311.701 68.76 313.749 67.992C315.477 67.288 316.853 66.936 317.877 66.936C318.261 66.936 318.453 67.224 318.453 67.8C318.453 68.056 318.037 68.632 317.205 69.528C316.437 70.36 315.445 71.544 314.229 73.08C313.013 74.616 312.021 76.152 311.253 77.688C309.269 81.528 307.765 84.536 306.741 86.712C305.717 88.888 304.693 91.448 303.669 94.392C302.709 97.336 302.229 99.768 302.229 101.688ZM411.005 79.128C411.005 76.44 410.109 74.52 408.317 73.368C406.589 72.216 404.797 71.64 402.941 71.64C400.701 71.64 397.853 72.6 394.397 74.52C391.005 76.376 387.581 79.096 384.125 82.68C383.805 83.384 383.037 84.888 381.821 87.192C380.605 89.496 379.773 91.16 379.325 92.184C378.877 93.144 378.269 94.488 377.501 96.216C376.733 97.944 376.189 99.48 375.869 100.824C375.613 102.104 375.484 103.32 375.484 104.472C375.484 108.248 377.341 110.136 381.053 110.136C386.365 110.136 391.389 108.344 396.125 104.76C400.925 101.176 404.605 97.016 407.165 92.28C409.725 87.544 411.005 83.16 411.005 79.128ZM375.389 87.192C378.205 81.944 382.269 74.712 387.581 65.496C392.957 56.216 397.245 48.728 400.445 43.032C403.709 37.272 406.685 31.32 409.373 25.176C412.061 18.968 413.405 14.264 413.405 11.064C413.405 6.39199 411.709 4.05599 408.317 4.05599C405.309 4.05599 402.109 5.43199 398.717 8.18399C397.629 9.07999 397.021 9.528 396.893 9.528C396.573 9.528 396.413 9.368 396.413 9.048C396.413 8.856 397.021 8.24799 398.237 7.22399C400.861 5.11199 403.421 3.47999 405.917 2.32799C408.413 1.112 410.365 0.503998 411.773 0.503998C414.269 0.503998 416.317 1.304 417.917 2.904C419.581 4.44 420.413 6.552 420.413 9.23999C420.413 11.032 419.933 13.336 418.973 16.152C418.077 18.904 416.669 22.2 414.749 26.04C412.829 29.88 411.133 33.144 409.661 35.832C408.253 38.52 406.237 42.168 403.613 46.776C401.053 51.32 399.421 54.2 398.717 55.416L385.949 78.456C395.549 71.288 403.197 67.704 408.893 67.704C411.453 67.704 413.661 68.632 415.517 70.488C417.373 72.28 418.301 74.616 418.301 77.496C418.301 81.208 417.149 85.144 414.845 89.304C412.605 93.4 409.629 97.176 405.917 100.632C402.269 104.024 397.853 106.872 392.669 109.176C387.485 111.416 382.269 112.536 377.021 112.536C370.877 112.536 367.805 109.944 367.805 104.76C367.805 103.864 367.965 102.808 368.285 101.592C368.669 100.376 369.181 99.032 369.821 97.56C370.525 96.088 371.133 94.872 371.645 93.912C372.157 92.952 372.861 91.672 373.757 90.072C374.653 88.472 375.197 87.512 375.389 87.192ZM482.967 101.592C473.943 108.632 466.519 112.152 460.695 112.152C455.703 112.152 453.207 109.528 453.207 104.28C445.463 109.08 439.479 111.48 435.255 111.48C432.439 111.48 430.327 110.52 428.919 108.6C427.511 106.616 426.807 104.056 426.807 100.92C426.807 96.248 428.471 91.32 431.799 86.136C435.127 80.888 439.351 76.504 444.471 72.984C449.655 69.464 454.647 67.704 459.447 67.704C462.199 67.704 464.727 68.504 467.031 70.104C469.399 71.64 470.999 73.88 471.831 76.824C473.495 76.824 474.327 77.528 474.327 78.936C474.327 79.768 474.231 80.568 474.039 81.336C473.911 82.104 473.623 82.904 473.175 83.736C472.791 84.504 472.439 85.176 472.119 85.752C471.863 86.264 471.383 86.936 470.679 87.768C469.975 88.6 469.463 89.176 469.143 89.496C468.887 89.816 468.311 90.424 467.415 91.32C466.583 92.216 466.071 92.76 465.879 92.952C465.495 93.336 464.791 94.008 463.767 94.968C462.743 95.928 461.975 96.664 461.463 97.176C460.695 99.16 460.311 101.272 460.311 103.512C460.311 106.84 462.103 108.504 465.687 108.504C469.719 108.504 475.223 105.88 482.199 100.632C486.167 97.56 490.519 93.08 495.255 87.192C495.511 86.808 495.767 86.616 496.023 86.616C496.279 86.616 496.407 86.744 496.407 87C496.407 87.128 496.343 87.32 496.215 87.576C491.863 93.464 487.447 98.136 482.967 101.592ZM459.159 70.008C455.127 70.008 451.159 71.704 447.255 75.096C443.415 78.424 440.375 82.488 438.135 87.288C435.895 92.024 434.775 96.504 434.775 100.728C434.775 105.72 436.535 108.216 440.055 108.216C444.023 108.216 448.471 106.264 453.399 102.36C455.127 96.216 457.559 91.032 460.695 86.808C464.535 81.368 467.735 78.168 470.295 77.208C469.463 75.032 468.023 73.304 465.975 72.024C463.927 70.68 461.655 70.008 459.159 70.008ZM462.135 95.064C468.599 88.6 471.831 84.184 471.831 81.816C471.831 81.304 471.575 81.048 471.063 81.048C469.591 81.048 466.615 85.72 462.135 95.064ZM528.404 101.592C523.284 105.304 518.58 108.152 514.292 110.136C510.004 112.12 505.364 113.112 500.372 113.112C496.148 113.112 492.596 112.152 489.716 110.232C486.9 108.248 485.492 105.016 485.492 100.536C485.492 96.632 486.708 92.632 489.14 88.536C491.572 84.376 494.516 80.824 497.972 77.88C501.428 74.872 505.012 72.44 508.724 70.584C512.436 68.664 515.604 67.704 518.228 67.704C519.764 67.704 520.98 68.216 521.876 69.24C522.772 70.264 523.22 71.608 523.22 73.272C523.22 74.488 523.028 75.384 522.644 75.96C522.26 76.472 521.236 77.176 519.572 78.072C518.292 78.712 517.396 79.032 516.884 79.032C516.628 79.032 516.5 78.968 516.5 78.84C516.5 78.776 516.532 78.68 516.596 78.552C516.66 78.36 516.724 78.104 516.788 77.784C516.852 77.464 516.884 77.112 516.884 76.728C516.884 75.064 516.404 73.784 515.444 72.888C514.484 71.992 513.492 71.544 512.468 71.544C509.908 71.544 507.092 73.144 504.02 76.344C501.012 79.544 498.484 83.416 496.436 87.96C494.388 92.504 493.364 96.6 493.364 100.248C493.364 107.16 496.852 110.616 503.828 110.616C510.676 110.616 518.612 107.288 527.636 100.632C531.604 97.56 535.956 93.08 540.692 87.192C540.948 86.808 541.204 86.616 541.46 86.616C541.716 86.616 541.844 86.744 541.844 87C541.844 87.128 541.78 87.32 541.652 87.576C537.3 93.464 532.884 98.136 528.404 101.592ZM591.244 72.024C588.3 72.024 585.964 72.6 584.236 73.752C583.66 74.136 583.34 74.328 583.276 74.328C583.02 74.328 582.892 74.2 582.892 73.944C582.892 73.688 583.084 73.432 583.468 73.176C588.268 69.592 592.108 67.8 594.988 67.8C597.228 67.8 598.988 68.568 600.268 70.104C601.548 71.64 602.188 73.464 602.188 75.576C602.188 78.648 601.708 81.592 600.748 84.408C599.852 87.224 598.124 90.648 595.564 94.68C601.964 89.112 608.908 81.752 616.396 72.6C616.588 72.408 616.94 71.896 617.452 71.064C617.964 70.168 618.284 69.656 618.412 69.528C618.924 68.952 619.948 68.344 621.484 67.704C623.084 67 624.364 66.648 625.324 66.648C625.708 66.648 625.9 66.776 625.9 67.032C625.9 67.16 625.804 67.384 625.612 67.704C625.42 68.024 625.132 68.536 624.748 69.24C624.364 69.944 624.012 70.552 623.692 71.064C621.324 75.16 619.244 79.064 617.452 82.776C615.724 86.488 613.996 90.424 612.268 94.584C610.604 98.744 609.228 101.976 608.14 104.28C609.164 103.384 611.756 100.696 615.916 96.216C620.076 91.736 624.492 87.192 629.164 82.584C633.836 77.912 637.804 74.392 641.068 72.024C646.572 68.056 650.348 66.072 652.396 66.072C653.548 66.072 654.508 66.52 655.276 67.416C656.108 68.248 656.524 69.144 656.524 70.104C656.524 70.744 656.428 71.16 656.236 71.352C656.044 71.544 655.244 72.184 653.836 73.272C652.62 74.232 651.788 74.712 651.34 74.712C651.148 74.712 651.052 74.648 651.052 74.52C651.052 73.176 650.7 72.152 649.996 71.448C649.356 70.744 648.524 70.392 647.5 70.392C644.876 70.392 641.996 72.408 638.86 76.44C636.3 79.704 634.06 83.608 632.14 88.152C630.22 92.632 629.26 96.472 629.26 99.672C629.26 103.32 629.964 105.88 631.372 107.352C632.844 108.824 634.956 109.56 637.708 109.56C640.652 109.56 644.044 108.76 647.884 107.16C651.788 105.496 655.5 103.32 659.02 100.632C662.988 97.56 667.34 93.08 672.076 87.192C672.332 86.808 672.588 86.616 672.844 86.616C673.1 86.616 673.228 86.744 673.228 87C673.228 87.128 673.164 87.32 673.036 87.576C668.94 93.208 664.524 97.88 659.788 101.592C649.868 109.464 641.228 113.4 633.868 113.4C626.252 113.4 622.444 109.688 622.444 102.264C622.444 96.888 624.364 91.256 628.204 85.368C620.14 92.92 613.644 99.896 608.716 106.296L605.356 111C605.1 111.256 604.748 111.48 604.3 111.672C603.852 111.928 603.212 112.184 602.38 112.44C601.548 112.76 600.94 112.984 600.556 113.112C600.172 113.304 599.724 113.496 599.212 113.688C598.764 113.944 598.38 114.136 598.06 114.264C597.804 114.392 597.612 114.456 597.484 114.456C597.1 114.456 596.908 114.264 596.908 113.88C596.908 113.624 602.988 101.336 615.148 77.016L592.684 99.96C589.676 102.904 586.22 105.944 582.316 109.08C578.476 112.152 576.012 113.688 574.924 113.688C574.604 113.688 573.996 113.272 573.1 112.44C572.972 112.312 572.716 112.088 572.332 111.768C572.012 111.512 571.724 111.288 571.468 111.096C571.276 110.968 571.084 110.776 570.892 110.52C570.764 110.2 570.7 109.912 570.7 109.656C570.7 109.272 571.276 108.856 572.428 108.408C573.58 107.896 575.02 107.32 576.748 106.68C578.54 106.04 579.884 105.464 580.78 104.952C583.724 103.288 587.18 99.8 591.148 94.488C595.116 89.176 597.1 84.152 597.1 79.416C597.1 77.816 596.492 76.184 595.276 74.52C594.124 72.856 592.78 72.024 591.244 72.024ZM623.326 193.176C617.95 193.176 613.118 191.192 608.83 187.224C604.542 183.32 602.398 178.328 602.398 172.248C602.398 168.28 603.23 164.472 604.894 160.824C606.494 157.176 608.542 153.912 611.038 151.032C613.47 148.216 616.606 145.432 620.446 142.68C624.286 139.992 627.966 137.688 631.486 135.768C634.942 133.912 639.006 132.024 643.678 130.104C648.286 128.248 652.19 126.776 655.39 125.688C658.527 124.6 662.079 123.416 666.047 122.136C669.119 121.24 670.751 120.792 670.943 120.792C671.519 120.792 671.807 121.016 671.807 121.464C671.807 121.656 671.743 121.816 671.615 121.944C671.487 122.136 671.263 122.296 670.943 122.424C670.687 122.616 670.431 122.744 670.174 122.808C669.983 122.872 669.631 122.968 669.119 123.096C668.671 123.288 668.351 123.416 668.159 123.48C655.871 127.448 647.742 130.232 643.774 131.832C624.894 139.576 613.79 149.368 610.462 161.208C609.758 163.832 609.406 166.584 609.406 169.464C609.406 175.16 611.294 179.896 615.07 183.672C618.782 187.448 623.422 189.336 628.99 189.336C635.07 189.336 640.734 186.776 645.982 181.656C651.166 176.6 656.415 169.496 661.727 160.344C681.055 126.68 693.855 104.6 700.127 94.104H700.031C695.615 98.776 690.623 102.776 685.055 106.104C679.487 109.368 674.367 111 669.695 111C667.007 111 664.959 110.104 663.551 108.312C662.207 106.456 661.535 104.024 661.535 101.016C661.535 96.472 663.199 91.48 666.527 86.04C669.919 80.6 674.143 75.992 679.199 72.216C684.255 68.376 688.959 66.456 693.311 66.456C699.839 66.456 705.023 70.68 708.863 79.128L709.439 77.976C709.823 77.144 710.143 76.6 710.399 76.344C710.655 76.024 711.071 75.832 711.647 75.768C712.223 75.704 712.543 75.672 712.607 75.672C712.671 75.672 712.863 75.608 713.183 75.48C713.567 75.352 713.823 75.288 713.951 75.288C714.015 75.288 714.111 75.352 714.239 75.48C714.431 75.608 714.527 75.736 714.527 75.864C714.527 76.248 714.335 76.632 713.951 77.016C713.695 77.272 713.407 77.72 713.087 78.36C712.767 78.936 712.351 79.672 711.839 80.568C711.391 81.464 711.007 82.2 710.687 82.776C711.071 83.544 711.263 84.184 711.263 84.696C711.263 85.208 711.071 85.464 710.687 85.464C710.623 85.464 710.367 85.016 709.919 84.12L669.311 159.672C667.327 163.32 664.735 167.032 661.535 170.808C658.335 174.648 654.75 178.264 650.782 181.656C646.75 185.048 642.302 187.8 637.438 189.912C632.574 192.088 627.87 193.176 623.326 193.176ZM708.095 80.28C704.255 73.368 699.391 69.912 693.503 69.912C690.367 69.912 686.911 71.448 683.135 74.52C679.423 77.528 676.223 81.528 673.535 86.52C670.847 91.512 669.503 96.408 669.503 101.208C669.503 102.744 670.015 104.184 671.039 105.528C672.127 106.872 673.407 107.544 674.879 107.544C681.343 107.544 690.239 101.88 701.567 90.552C703.167 88.952 705.343 85.528 708.095 80.28ZM774.342 101.592C765.318 108.632 757.894 112.152 752.07 112.152C747.078 112.152 744.582 109.528 744.582 104.28C736.838 109.08 730.854 111.48 726.63 111.48C723.814 111.48 721.702 110.52 720.294 108.6C718.886 106.616 718.182 104.056 718.182 100.92C718.182 96.248 719.846 91.32 723.174 86.136C726.502 80.888 730.726 76.504 735.846 72.984C741.03 69.464 746.022 67.704 750.822 67.704C753.574 67.704 756.102 68.504 758.406 70.104C760.774 71.64 762.374 73.88 763.206 76.824C764.87 76.824 765.702 77.528 765.702 78.936C765.702 79.768 765.606 80.568 765.414 81.336C765.286 82.104 764.998 82.904 764.55 83.736C764.166 84.504 763.814 85.176 763.494 85.752C763.238 86.264 762.758 86.936 762.054 87.768C761.35 88.6 760.838 89.176 760.518 89.496C760.262 89.816 759.686 90.424 758.79 91.32C757.958 92.216 757.446 92.76 757.254 92.952C756.87 93.336 756.166 94.008 755.142 94.968C754.118 95.928 753.35 96.664 752.838 97.176C752.07 99.16 751.686 101.272 751.686 103.512C751.686 106.84 753.478 108.504 757.062 108.504C761.094 108.504 766.598 105.88 773.574 100.632C777.542 97.56 781.894 93.08 786.63 87.192C786.886 86.808 787.142 86.616 787.398 86.616C787.654 86.616 787.782 86.744 787.782 87C787.782 87.128 787.718 87.32 787.59 87.576C783.238 93.464 778.822 98.136 774.342 101.592ZM750.534 70.008C746.502 70.008 742.534 71.704 738.63 75.096C734.79 78.424 731.75 82.488 729.51 87.288C727.27 92.024 726.15 96.504 726.15 100.728C726.15 105.72 727.91 108.216 731.43 108.216C735.398 108.216 739.846 106.264 744.774 102.36C746.502 96.216 748.934 91.032 752.07 86.808C755.91 81.368 759.11 78.168 761.67 77.208C760.838 75.032 759.398 73.304 757.35 72.024C755.302 70.68 753.03 70.008 750.534 70.008ZM753.51 95.064C759.974 88.6 763.206 84.184 763.206 81.816C763.206 81.304 762.95 81.048 762.438 81.048C760.966 81.048 757.99 85.72 753.51 95.064ZM799.811 71.544C799.811 73.976 798.883 76.92 797.027 80.376C797.091 80.312 798.083 79.416 800.003 77.688C801.923 75.896 803.491 74.488 804.707 73.464C805.987 72.44 807.555 71.384 809.411 70.296C811.267 69.208 812.835 68.664 814.115 68.664C815.203 68.664 816.067 69.08 816.707 69.912C817.347 70.744 817.667 71.832 817.667 73.176C817.667 74.264 817.475 75.512 817.091 76.92C816.771 78.264 816.451 79.352 816.131 80.184L815.651 81.432C816.035 81.048 816.515 80.568 817.091 79.992C817.731 79.352 818.947 78.264 820.739 76.728C822.595 75.192 824.387 73.848 826.115 72.696C827.843 71.48 829.795 70.392 831.971 69.432C834.211 68.472 836.195 67.992 837.923 67.992C839.523 67.992 840.867 68.44 841.955 69.336C843.043 70.232 843.587 71.384 843.587 72.792C843.587 74.456 842.467 77.048 840.227 80.568C837.987 84.024 835.523 87.64 832.835 91.416C830.211 95.128 827.779 99.896 825.539 105.72C823.299 111.48 822.179 117.208 822.179 122.904C822.179 127.768 823.491 132.056 826.115 135.768C828.739 139.544 832.547 141.432 837.539 141.432C842.467 141.432 847.875 139.32 853.763 135.096C859.651 130.872 864.227 126.36 867.491 121.56C867.747 121.176 868.003 120.984 868.259 120.984C868.515 120.984 868.643 121.112 868.643 121.368C868.643 121.496 868.579 121.688 868.451 121.944C863.971 128.024 858.531 133.24 852.131 137.592C845.795 142.008 839.779 144.216 834.083 144.216C828.771 144.216 824.355 142.328 820.835 138.552C817.379 134.776 815.651 129.944 815.651 124.056C815.651 118.872 816.611 113.496 818.531 107.928C820.451 102.36 822.563 97.72 824.867 94.008C827.171 90.232 829.283 86.616 831.203 83.16C833.123 79.64 834.083 77.08 834.083 75.48C834.083 73.816 833.315 72.984 831.779 72.984C827.555 72.984 821.475 77.112 813.539 85.368C813.475 85.496 813.219 85.784 812.771 86.232C812.387 86.616 812.131 86.872 812.003 87C811.875 87.128 811.619 87.384 811.235 87.768C810.851 88.088 810.563 88.344 810.371 88.536C810.179 88.664 809.891 88.888 809.507 89.208C809.187 89.464 808.867 89.656 808.547 89.784C808.291 89.848 807.971 89.976 807.587 90.168C807.267 90.296 806.915 90.392 806.531 90.456C806.211 90.52 805.859 90.552 805.475 90.552C805.283 90.552 805.187 90.456 805.187 90.264C805.187 89.88 805.443 89.528 805.955 89.208C806.467 88.824 806.787 88.44 806.915 88.056C809.539 82.296 810.851 78.392 810.851 76.344C810.851 74.552 810.115 73.656 808.643 73.656C806.979 73.656 804.931 74.712 802.499 76.824C800.131 78.872 797.859 81.368 795.683 84.312C792.547 88.408 787.747 97.016 781.283 110.136C781.091 110.584 780.675 110.872 780.035 111C779.459 111.064 778.723 111.096 777.827 111.096C776.931 111.096 776.195 111.192 775.619 111.384L772.451 112.536C772.131 112.536 771.971 112.376 771.971 112.056C771.971 111.992 772.003 111.896 772.067 111.768C772.131 111.704 772.227 111.576 772.355 111.384C772.547 111.256 772.707 111.096 772.835 110.904C775.651 106.808 780.259 98.904 786.659 87.192C790.499 80.344 792.419 75.48 792.419 72.6C792.419 70.552 791.779 69.528 790.499 69.528C789.027 69.528 786.659 70.616 783.395 72.792C782.819 73.176 782.499 73.368 782.435 73.368C782.179 73.368 782.051 73.24 782.051 72.984C782.051 72.728 782.243 72.472 782.627 72.216C787.427 68.632 791.267 66.84 794.147 66.84C796.003 66.84 797.411 67.288 798.371 68.184C799.331 69.016 799.811 70.136 799.811 71.544ZM875.939 69.528C875.939 69.592 875.651 69.752 875.075 70.008C874.563 70.264 873.827 70.776 872.867 71.544C871.907 72.248 871.011 73.144 870.179 74.232C861.859 85.496 857.699 94.392 857.699 100.92C857.699 106.488 859.939 109.272 864.419 109.272C868.643 109.272 872.451 107.064 875.843 102.648C879.235 98.168 880.931 94.104 880.931 90.456C880.931 88.344 880.483 86.776 879.587 85.752C879.331 85.688 878.659 85.528 877.571 85.272C876.547 85.016 875.651 84.792 874.883 84.6C874.115 84.344 873.731 84.12 873.731 83.928C873.731 83.608 873.923 83.256 874.307 82.872C874.691 82.424 875.267 81.944 876.035 81.432C876.803 80.856 877.251 80.504 877.379 80.376C877.571 80.184 877.731 80.024 877.859 79.896C878.051 79.704 878.179 79.576 878.243 79.512C878.307 79.448 878.371 79.384 878.435 79.32C878.499 79.192 878.563 79.128 878.627 79.128C878.691 79.064 878.723 79.032 878.723 79.032C878.787 79.032 878.883 79.032 879.011 79.032C879.267 79.032 879.587 79.16 879.971 79.416C880.355 79.672 880.771 80.024 881.219 80.472C881.667 80.856 881.955 81.08 882.083 81.144C883.491 82.104 885.187 82.584 887.171 82.584C888.451 82.584 889.827 82.36 891.299 81.912C892.835 81.4 894.435 80.664 896.099 79.704C897.827 78.744 899.203 77.944 900.227 77.304C901.315 76.6 902.723 75.608 904.451 74.328C906.179 73.048 907.171 72.344 907.427 72.216C908.003 71.832 908.323 71.64 908.387 71.64C908.643 71.64 908.771 71.768 908.771 72.024C908.771 72.28 908.579 72.536 908.195 72.792C907.811 73.048 906.403 74.04 903.971 75.768C901.603 77.432 899.523 78.904 897.731 80.184C895.939 81.4 893.987 82.584 891.875 83.736C889.763 84.888 888.195 85.496 887.171 85.56C887.171 89.912 885.795 94.2 883.043 98.424C880.355 102.584 876.899 105.944 872.675 108.504C868.515 111.064 864.355 112.344 860.195 112.344C853.539 112.344 850.211 108.6 850.211 101.112C850.211 94.904 854.819 85.272 864.035 72.216C864.483 71.512 865.123 71.096 865.955 70.968C867.811 70.648 869.635 70.2 871.427 69.624C873.283 69.048 874.563 68.76 875.267 68.76C875.715 68.76 875.939 69.016 875.939 69.528Z" fill="black"></path> </svg> 